<?xml version="1.0"?>
    
<!--********* Copyright (c) 2024 Pareto Softare, LLC DBA Simplemaps.com ***************************************
************* Free for Commercial Use, full terms at  https://simplemaps.com/resources/svg-license ************
************* Attribution is appreciated! https://simplemaps.com *******************************************-->

<svg baseprofile="tiny" fill="#6f9c76" height="704" stroke="#ffffff" stroke-linecap="round" stroke-linejoin="round" stroke-width=".5" version="1.2" viewbox="0 0 1000 704" width="1000" xmlns="http://www.w3.org/2000/svg">
 <g id="features">
  <path d="M357.3 75.7l1.5 5.3 4.5 6.5 1 1.1 1.3 1.1 3.3 2.1 1.2 1.2 1 1.8-0.1 1.6-0.8 1.6-13.6 10.4-2.4 1.2-2.2 0.4-1.7-0.1-1.6-0.4-1.5-0.8-3.7-1.1-6.9-0.1-1.5 0.7-1.1 1.2-0.5 2 0.2 1.2 0.6 1 1.1 0.7 6.5 1.8 1.5 0.9 1.1 1 0.7 1.2 0.2 1.9-0.3 1.7-1.2 2.7-0.7 1.8-1.6 3.6-2.1 2.6-1.7 2.5-1.5 1.7-1.8 1-1.6 0-1.5-0.6-4.4-2.9-1.1-1.1-1.6-2-0.8-0.5-0.8 0-1 0.6-5.6 7.2-0.8 1.3-0.5 1.6-0.4 1.5-0.4 1.2-0.5 1-0.8 1-0.9 0.8-3.5 2.4-0.8 0.8-0.3 0.9 0.2 1.1 1.3 1.1 1.7 0.9 8.8 1.7 1.1 2 0.8 1.9 0.2 1.1-0.2 1-0.5 0.9-3.7 3.2-0.6 0.8-0.5 1-0.4 0.6-0.5 0.3-1.2-0.8-1.6-1.9-1.1-0.5-3.9-1.1-1.4-0.8-2.3-2.3-1.4-0.8-10.5-3-1.9 0-2.7 0.7-12.6 6.1-4.1 3.4-0.9-2.5-0.7-3.6-0.9-1.7-1.1-1-2.9-1.6-1.6-1.4-1.3-0.9-1-0.3-1 0.3-2.3 1.3-0.9 0.2-1.4-0.3-0.9 0-0.9 0-0.8 0.3-1 0.2-1.6-0.3-0.8-0.7-0.6-1.1-1.1-3-0.8-1.7-2.8-4.2-1.5-2.9-1.4-2-4-2.9-1.1-1.2-0.8-1.3-1.2-2.8-2-3.1-0.4-0.7 0.1-1 0.1-1 0.3-1 2.4-3.4 0.3-1.2 0.3-2.6 0.4-1.1 0.7-0.9 1.6-1.2 0.7-0.7 2.1-3.2 1.1-1.1 1.8-1 1.7-0.6 1.2-0.2 4.5 0.7 1.4-0.1 1.2-0.5 1.1-1.1 1.6-5.6 3-0.7 7.1 3.7 3.3 0.6 3.7-0.5 3.5-1.6 2.8-2.4 2.4-3.2 1.1-0.9 2-0.9 2.1-0.2 0.5-0.4 0.9-1.6-0.2-1-0.5-1-0.1-1.2 1.1-1.9 1.5-1.1 3.9-1.5 1.5-1.4 2.5-4.5 1.5-1.9 2-0.6 1.5-1 0 0.1 0.1 0 0-0.1 0.1 0 0-0.1 0.1-0.2 0 0.1 0 0.1 0 0.1 0 0.1 0.1 0.1 0.1 0 0.1 0 0-0.1-0.1 0 0-0.1-0.1 0 0-0.1 0.1 0 0.1 0 0 0.1 0.1 0 0-0.1-0.1 0 0-0.1 0.1 0 0.1 0 0.1 0 0-0.1 0.1 0 0 0.1 0.1 0 0 0.1 0.1 0 0.1 0 0.1 0 0.1 0 0.2-0.1 0-0.1 0.1 0 0.2-0.1 0-0.1 0.1 0 0-0.1 0-0.1 0.1 0 0-0.1 0.1 0 0.1 0 0.1 0 0.1 0 0.1 0 0-0.1 0-0.1 0-0.1 0.1 0 0.1 0 0-0.1 0.1 0 0.2-0.1 0.1 0-0.1 0 0-0.1 0-0.1-0.1 0 0 0.1-0.1-0.1-0.1-0.1 0-0.1 0-0.1-0.1-0.1 0-0.1 0-0.1 0-0.1 0-0.1 0-0.1 0-0.1 0-0.1-0.1-0.2 0-0.1 0-0.1 0-0.1-0.1-0.1 0-0.1 0-0.1 0-0.1-0.1 0 0-0.1 0-0.1 0-0.1 0-0.1 0-0.2 0-0.2 0-0.1 0-0.3-0.1-0.1 0-0.1 0-0.1-0.1-0.2 0-0.1 0-0.1-0.1-0.1 0-0.1-0.1-0.1 0-0.1 0-0.1-0.1 0-0.1 0-0.1 0-0.1 0-0.1 0-0.1 0-0.1 0 0-0.1-0.1-0.1-0.1 0 0-0.1-0.1 0 0-0.1-0.1 0-0.1 0 0-0.1 0.1-0.3 1.5-0.1 1.7 0.8 1.5 1 1.5 1 1.5 0.4 1.6-0.2 3.3-2.6 0.2-0.1 0.1-0.1 0.7-0.5 0.4-0.1 0.5 0 0.3 0.1 0.5 0.4 0.1 0 0.1 0 0.1 0 0.2 0 0.1-0.1 0.1 0 0-0.1 0.1-0.1 0-0.1 0.1 0 0-0.1 0-0.2 0-0.1 0.1-0.1 0-0.1 0.1-0.3 0.1-0.1 0.1-0.1 0.1-0.1-0.7-0.1 0-0.1-0.1-0.3 0.3-0.2 0-0.1 0-0.1 0.3-0.1 0.2-0.1 0.1-0.1 0.3-0.2 0-0.2 0.1-0.3 0.3-0.2 0.1-0.3 0.2-0.4 0-0.4-0.2-0.1-0.1-0.1-0.1 0-0.2-0.1-0.2-0.1-0.2-0.4-0.1-0.1 0.4-0.3 0.3-0.2 0.5-0.5 0.2-0.3 0-0.1-0.1-0.2 0-0.1-0.2-0.2 0-0.2 0.3-0.4-0.2 0-0.2-0.2-0.1 0 0-0.3-0.1 0-0.1-0.1 0.1-0.1 0.1 0 0-0.1 0.1 0 0.1 0 0-0.1 0.1 0 0-0.1 0.1-0.1 0.2 0 0.1-0.3 0.3-0.7 0.3 0.1 0.3-0.2-0.2-0.2 0.1-0.2 0.1-0.2-0.1-0.1-0.3-0.2-0.5-0.4 0-0.1 0.1 0 0.1-0.1 0.2 0 0-0.1-0.1 0 0.1-0.1 0-0.1 0-0.1 0.4-0.1 0.4-0.2 0.1 0 0.2-0.4 0.1-0.1 0.5 0 0.1 0.2 0.2 0 0.1-0.4 0.2-0.1 1.9 0.3 6.6 2.3 1.7 1.3 4 4.7 4.6 3.9 2.1 2.6 0.7 0.3 0.7 0.1 0.7-0.1 0.8-0.3 0.1-0.1 0.2 0 0.1 0 0.2 0.1 6.2 3.1 2-0.1 0.1-0.1 0.1 0.1 0.3 0.1z" id="ROSM" name="Satu Mare">
  </path>
  <path d="M159 261.9l2.1 0.7 4.4 1.1 32.1-1.8 2.5 0.5 0.6 0.9 0.8 0.8 1.3 0.6 1.3 0.2 1.8-0.1 1.2 0.4 1.6 0.8 1.2 1.3 2.4 0.9 8.5 0.4 2.6 0.5 1.8 0.8 1 1 2.2 1.6 0.7 0.9 0.7 1.6 2.1 5.7 1.2 2.3 1.4 1.8 1.9 1.3 2.4 0.7 1.6 0.8 4.5 3.9 7.2 2.7 0.9 1 0.3 1.2 0.4 1.4 1.1 1.6 1.4 0.8 1.5 0.3 8.7 0.2 7.3 1.6 4.6 0.4 4-0.3 4.7 4.8-6.3 4.7-1.7 3.7-0.9 2.2-2.2 3.7-2 1.8-1.8 1-2.3 0.3-1.8-0.1-5.4-1.3-1.7 0.2-1.3 0.8-2.2 2-0.9 1.4-0.4 1.5 0.2 4.6-0.2 1.9-0.4 2.1-1.4 2.9-0.6 1.7-0.2 1.4 1 3.2 0.3 1.5-0.1 1.6-0.7 2.3-1 2.4-4.5 5.8-1.8 0.9-0.3 0.4-0.5 0.5-0.6 2-0.4 0.5-0.6 0.3-1.6 0.2-3.6 0.9-0.8 0.3-0.7 0.7-0.6 0.7-0.6 0.5-0.9-0.1-2.3-1.3-1.3-0.2-2 0.2-1.5 0-1.4-0.3-1-1-0.7-0.8-0.8-0.6-1.6-0.8-0.7-0.5-0.4-0.7-0.3-1-0.5-0.7-1-0.5-3.8-0.3-1.7-0.5-1.2-1.1-0.8-1-1-0.7-1.4-0.5-2.3 0-1.2 0.2-0.7 0.4-0.4 0.7-0.3 0.9-0.6 3.1-0.4 0.7-0.5 0.5-0.8 0.1-2.1 0-1-0.3-0.8-0.8-0.7-0.5-0.5 0-0.5 0.8-0.1 1-0.1 1.1 0.2 1.9-0.2 0.7-0.4 0.2-0.6-0.3-0.8-1-1.2-1.9-0.8-0.8-1.1-0.7-3.1-1.5-1.4 0.1-0.8 0.4-0.7 0.9-1.3 2.3-0.9 2.2-0.6 0.7-0.7 0-0.8-0.8-0.4-0.9-0.6-0.7-1.3-0.9-0.4-0.4-0.1-0.6 0.2-0.7 0.3-0.7 0.1-0.8-0.3-0.9-0.9-1.2-1.9-1.6-2.2-2.2-1-0.6-1-0.3-2.7 0.4-0.9-0.3-0.7-1-0.2-1.1 0-1.1-0.1-0.9-0.8-0.8-1.5-0.5-3.2-0.4-1.6 0.2-1 0.5-0.2 0.8 0 1-0.1 0.9-0.4 0.9-0.6 0.7-2.6 2-2.1 2.2-0.7 0.3-0.6-0.2-1.4-1.6-1-0.5-1.6 0-1.4 0.2-1.1 0.5-2.2 1.9-1.4 0-1.6-0.9-2.5-2.5-0.8-1.7-0.1-1.3-0.2-0.5-0.7-0.3-1.5 0.2-0.9 0.5-0.9 0.8-0.4 0.8-0.2 0.8 0 1.6-0.2 0.7-0.4 0.7-0.7 0.4-1 0.1-1.4-0.3-1.2-0.7-1.3-1.6-0.2-1 0.2-1.6-0.4-0.7-1-0.6-2.1-0.6-1.1 0.1-1.8 0.5-0.9 0-5.9-1.1-1.4-0.5-1.2-0.8-1.3-1.9-1-2.7-3.4-3.5-13.6-9.6-1.4-0.5 0.1-1.7 0.5-1 0.7-0.3 0.9 0.3 0.9 0.2 0.8-0.8 0-1.1-0.9-3.1 0-1.3 0.4-0.8 3.8-3.1 0.8-0.5 1.1-0.6 2-0.5 1.9 0 0.9 0.5 1.8 1.5 0.7 0.4 1-0.1 1.4-0.8 0.7-0.2 1.7 0.4 3.6 1.5 1.9-0.1 0.8-0.3 0.9 0 0.7 0.3 0.7 0.8 1.9 1.7 1.7-0.7 4.6-5.6 0.6-0.3 2.8 0 0.9-0.7 1.1-2.1 0.9-2.7 0.4-6.2 0.9-3 1.6-1.9 1.9-0.7 4.1-0.2 2.2-1.7-0.6-3-2.8-5.4 0.2-2.9 1.4-2.2 1.7-2.1 1.1-2.6 0.4-5.3 0.6-2.7 1.4-1.8 2.1-0.5 3.5 0.3 2.1-1.1 2-2.7 0.7-1.8z" id="ROAR" name="Arad">
  </path>
  <path d="M230.5 129.6l0.4 0.7 2 3.1 1.2 2.8 0.8 1.3 1.1 1.2 4 2.9 1.4 2 1.5 2.9 2.8 4.2 0.8 1.7 1.1 3 0.6 1.1 0.8 0.7 1.6 0.3 1-0.2 0.8-0.3 0.9 0 0.9 0 1.4 0.3 0.9-0.2 2.3-1.3 1-0.3 1 0.3 1.3 0.9 1.6 1.4 2.9 1.6 1.1 1 0.9 1.7 0.7 3.6 0.9 2.5-1 3.9-0.5 1.2-1.1 1.8-0.5 1.1-0.2 1.2-0.1 1.2-0.3 1.1-0.5 1.1-2.5 3.6-0.8 1-0.8 0.8 0 1.9 1.2 2.9 4.2 6.6 2.8 5.5 0.4 1.1 0.6 1.1 1.1 1.2 6 3.5 3.7 3.8 1.6 2.7-0.7 2-2.1 4.1-0.3 1.3 0.1 0.9 0.9 0.7 4.9 1.9 1.2 1 0.5 1.5-0.4 2.6-0.5 1.6-0.5 1.5-0.5 1.2-0.7 0.9-0.8 0.7-3.6 1.6-1 0.8-0.9 0.9-0.5 1.1-0.2 1.1 0.3 1.3 1.1 1.6 3.9 3.5 1.2 2.1 1.3 2.9 1.6 6.5 0.9 1.7 0.9 0.8 1.1 0.7 0.9 0.9 0.4 1.2-0.4 3.5-0.1 5.2-1.4-0.9-0.9-0.3-1.3-0.2-1.1 0-1.3 0.2-1.1 0.7-1.2 1.4-1.3 2.6-1 3.5-0.5 3.3 0.1 8.5 1.8 7.5-4 0.3-4.6-0.4-7.3-1.6-8.7-0.2-1.5-0.3-1.4-0.8-1.1-1.6-0.4-1.4-0.3-1.2-0.9-1-7.2-2.7-4.5-3.9-1.6-0.8-2.4-0.7-1.9-1.3-1.4-1.8-1.2-2.3-2.1-5.7-0.7-1.6-0.7-0.9-2.2-1.6-1-1-1.8-0.8-2.6-0.5-8.5-0.4-2.4-0.9-1.2-1.3-1.6-0.8-1.2-0.4-1.8 0.1-1.3-0.2-1.3-0.6-0.8-0.8-0.6-0.9-2.5-0.5-32.1 1.8-4.4-1.1-2.1-0.7 0.1-0.5 1.1-1.7 2.6-0.4 1.9-1.1 1.8-2.6 0.3-2.8-2.6-1.8-0.3-0.2-0.2-0.4-0.2-0.4 0.1-0.8 0.2-0.8 0.3-0.8 0.4-0.6 2.1-5.7 1.2-2.3 2-1.9 3.5-0.9 1-0.9 0.8-1.8 0-1.5-0.3-1.5-0.1-1.7 0.1-1.7 0.2-0.4 0.4-0.1 4.4-3.6 0.8-1.1 1.8-6.9 0.4-0.2-0.1-0.1-0.8-1.7-0.7-0.5-0.9-0.2-0.9-0.4-0.2-0.7-0.1-0.5 3.7-4.5 2.2-2.1 4.7-3.1 2-2 0.6-1.2 0.5-2.5 0.4-1.3 0.9-1.3 2.2-2.1 0.8-1.1 0.5-1.7 0-1.3-0.2-1.3 0-1.7 0.4-1.5 1.1-2.1 0.5-1.3 1.1-5.1 0.6-1.6 3.7-5.5 1.8-2 1.7-1 4.3-1.3 1.9-3.9-0.1-4.8-0.8-4.9-0.3-4.4 1.8-3.5 2.9-3.1 5.9-4.5 4.8-1.2 0.5-0.4 0.8-0.6 0.5-1.1 0-0.1z" id="ROBH" name="Bihor">
  </path>
  <path d="M89.8 330.2l1.4 0.5 13.6 9.6 3.4 3.5 1 2.7 1.3 1.9 1.2 0.8 1.4 0.5 5.9 1.1 0.9 0 1.8-0.5 1.1-0.1 2.1 0.6 1 0.6 0.4 0.7-0.2 1.6 0.2 1 1.3 1.6 1.2 0.7 1.4 0.3 1-0.1 0.7-0.4 0.4-0.7 0.2-0.7 0-1.6 0.2-0.8 0.4-0.8 0.9-0.8 0.9-0.5 1.5-0.2 0.7 0.3 0.2 0.5 0.1 1.3 0.8 1.7 2.5 2.5 1.6 0.9 1.4 0 2.2-1.9 1.1-0.5 1.4-0.2 1.6 0 1 0.5 1.4 1.6 0.6 0.2 0.7-0.3 2.1-2.2 2.6-2 0.6-0.7 0.4-0.9 0.1-0.9 0-1 0.2-0.8 1-0.5 1.6-0.2 3.2 0.4 1.5 0.5 0.8 0.8 0.1 0.9 0 1.1 0.2 1.1 0.7 1 0.9 0.3 2.7-0.4 1 0.3 1 0.6 2.2 2.2 1.9 1.6 0.9 1.2 0.3 0.9-0.1 0.8-0.3 0.7-0.2 0.7 0.1 0.6 0.4 0.4 1.3 0.9 0.6 0.7 0.4 0.9 0.8 0.8 0.7 0 0.6-0.7 0.9-2.2 1.3-2.3 0.7-0.9 0.8-0.4 1.4-0.1 3.1 1.5 1.1 0.7 0.8 0.8 1.2 1.9 0.8 1 0.6 0.3 0.4-0.2 0.2-0.7-0.2-1.9 0.1-1.1 0.1-1 0.5-0.8 0.5 0 0.7 0.5 0.8 0.8 1 0.3 2.1 0 0.8-0.1 0.5-0.5 0.4-0.7 0.6-3.1 0.3-0.9 0.4-0.7 0.7-0.4 1.2-0.2 2.3 0 1.4 0.5 1 0.7 0.8 1 1.2 1.1 1.7 0.5 3.8 0.3 1 0.5 0.5 0.7 0.3 1 0.4 0.7 0.7 0.5 1.6 0.8 0.8 0.6 0.7 0.8 1 1 1.4 0.3 1.5 0 2-0.2 1.3 0.2 2.3 1.3 0.9 0.1 0.6-0.5 0.6-0.7 0.7-0.7 0.8-0.3 3.6-0.9 1.6-0.2 0.6-0.3 0.4-0.5 0.6-2 0.5-0.5 0.3-0.4 1.8-0.9 3.3 3.5 0.9 2.2 0.3 2.6 0.4 1.7 0.6 2 0.9 1.4 2.7 2.2 0.8 0.8 0.9 1.7 1.8 4.5 0.8 1.2 0.8 0.5 1.2-0.7 0.7-0.2 0.7 0.1 1.1 0.6 0.2 0.9-0.2 1-0.8 1.1-3.9 3.5-1.1 1.2-0.8 1.4-0.4 1.3-0.4 2.6-0.3 1-0.4 0.7-0.3 0.4-0.8 0.4-10.6 2-3.6 2.5-2.7 5.6-0.5 0.4-0.7 0.1-0.8-0.2-0.9-0.1-1.3 0.1-0.9-0.2-0.6-0.3-1.2-1.4-0.7-0.6-1.3-0.2-1 0.4-2.5 2.2-2.4 1.6-2 0.7-2.2 0.4-3.4 0-0.6 0.5-0.1 0.7 0.2 0.9 0.2 1.6 0.2 0.6 0.4 0.4 0.5 0.1 1.3 0.1 0.1 0.5-0.6 0.9-2.5 1.7-1.8 0.7-2 0.3-1.2-0.2-1.1-0.5-0.8-0.7-0.7-1-0.5-1-0.9-2.2-0.7-1.1-0.9-0.8-1.4-0.4-1 0.2-3.4 2.2-4.4 2-2.4 0.6-1.7 0-0.7-0.6-1.2-1.6-1-0.7-1.1-0.5-2.2-0.6-1.8-1.1-1.5-0.4-3 0-2.8 0.9-1.7 1.2-0.9 1.4-0.4 1.5-0.2 1.5 0 1.4-0.7 1.3-1.3 1.4-4.1 2.3-1.7 1.5-0.9 1.3 0 1.1 0.2 1.4 0 1.2-0.4 1.2-1 2-0.3 1.1 0.1 1.1 0.3 1.2 0.6 1.1 3.3 3.4 1.9 1.6 0.7 0.8 0.5 1 0.3 1 0.1 1-0.1 0.8 0.1 0.8 0.3 1.3-0.1 0.8-0.3 0.8-1.9 2.4-0.3 1.1 0 1.4 0.5 3.8 0 1.3-0.5 1.4-0.5 1.1-1.7 2.3-1.9 1-2.4-2.9-2.5-2-2.7-1.5-10.2-3.2-4-0.1-1.8-0.7-3.1-2.3-1.6-1.9-3.3-4.8-1.6-1.2-0.9 0.3-1.6 1.7-0.9 0.4-1.2-0.3-0.8-0.7-0.8-1-1-0.7-4.6-2.1-3.3-1.6-1.5-1.2-3.7-4.9-6.2-5.6-3.2-4.7-1.3-1.4-1.6-0.7-1.8-0.6-1.3-0.9-0.7-1.9 2.2-1.8 1.4-1.4 0.2-1.9-1.2-3.2-2.8-4.9-0.4-2.3 0.8-3.4 1-2.5 0.4-1.2 0.3-1.9-0.1-7.2 0.2-1.4 0.4-1.3 0-1.3-0.7-1.3-1.2-0.6-1.1 0.4-0.8 1.2-0.6 1.6-1.2 1-1.3 0.4-1.3-0.3-1.1-1.1-1-1.8-2.2-2.9-0.9-1.6-0.2-0.8-0.1-0.5-0.3-2.8-0.3-1.1-0.7-0.9-1.6-1.1-0.7-0.7-3.2-5.7-1.5-1.5-1.8-0.7-3.6-0.4-1.8-0.9-5-4.7-1.8-1.2-3.8-1.7-1.7-1.2-1.4-2.2-2.1-6.4-1.1-2.1-6-7.5 3.8-5 15.5-0.4 2.4-3.8 3.9 0.9 3.8 1.6 2.8 2.6 0.9 0.6 1.2 0.5 0.7 0 5.4-1.1 1.9-1 1.5-1.6 0.5-1.4 0-0.3z" id="ROTM" name="Timis">
  </path>
  <path d="M311.3 612.1l-1.9-0.9-4.4-0.6-3.5-1.5-20.6-14.2-0.1 0-0.5-2 0.4-6.5-0.8-1.8-1.8-0.9-4-0.5-3.7-1.7-3.2-2.8-2.6-3.5-1.7-3.9-0.1-1 0.3-2.1-0.1-1.1-0.5-0.9-2-1.8-0.3-1.1 0-1.8 0.3-1.8 0.4-1.3 0.7-0.6 0.9-0.3 3.4-0.1 1.2-0.6 0.8-1.3 0.3-2.3 0.5-2.3 1.5-1.3 1.9-0.6 2 0.1 2 0.8 3.5 2.4 2.1 0.5 1.8-0.4 2.2-1 1.7-1.7 0.5-2.5-4.8-5.4-1.4-1-7.6-1-3.2-1.6-3.3-2.6-6.7-7.5-1.4-0.8-1.8-0.4-2.4-0.1-1 0.8-3.3 3.7-1.9 1.2-4 0.9-1.4 1.1-0.6 2.1-10.9 19.8-1.3 1.3-2.3 0.6-2.1-0.3-2.1-0.9-1.7-1.6-1-3.9-0.9-0.9-1.1-0.7-1-0.9-0.5-1.1-0.3-1.7-0.2-0.9 2.3-0.4 2.9-0.5 1.3 0.1 2.4 0.7 1.1 0.1 1.1-0.2 1.1-0.5 0.7-1 0.5-1.7-0.1-1.7-0.5-1.8-0.7-2.3-0.1-1.8 0.2-1.7 0.4-1.6 0.6-2 1.1-2.3 2.1-3.7 0.9-2.2 0.4-1.8 0-1.1 0.3-1 0.6-0.7 1.4-0.3 1 0.2 0.9 0.5 3.3 3.3 0.7 0.5 0.7 0.4 1 0.1 3.1-0.1 0.9 0.2 0.6 0.4 0.7 0.6 0.6 1.4 0.5 0.6 0.7 0.4 1 0.1 1.5-0.3 1-0.8 0.9-1.5 1-3 1.5-6.5 2.4-6.1 4-6.8 1-3.1 0.6-2.2 0.3-1.8 0.1-1.4 0.4-1.6 0.7-2 3.1-5 4.1-4.4 3.8 1.8 4.1 5.4 1.7 0.9 1.5 0.3 4.6-0.5 1.8 0.3 1.2 0.6 0.9 0.8 0.7 1.2 1.1 1.3 1.6 1.5 2.5 1.5 1.1 1.2 0.5 1.2-0.1 1.2-0.4 1.1-0.5 2.3 0 1.2 0.2 1.3 0.7 2.3 0.2 1.3 0.4 2.9 0.3 1.5 0.6 1.5 8.6 9.8 7.4 7 2.1 1.5 1.9 0.9 16.7 4.8 2.2 1.1 6.2 4.3 5.4 5.3 1 1.4 1.6 3.3-1.4 1.5-5.3-0.2-2.4 0.5-1.5 0.7-1.2 0.7-6.1 0.5-1.2 0.6-0.3 0.4 0.7 0.3 0.8 0.2 0.6 0.3 0 0.5-2.1 1.8-0.7 1-0.5 1-1.3 1.5-1.5 0.7-1.9 0.6-0.7 0.7-0.4 0.8-0.2 1.1-0.7 2.9 0 0.9 0.3 0.9 0.8 0.5 1.1 0.3 2 0.2 1 0.2 0.7 0.4 0.6 0.6 0.2 0.8-0.2 0.8-0.5 0.2-1.9-0.3-1.3 0.1-5.1 3-0.8 1.2-0.6 1.7-0.4 2.3-0.5 3.4-0.2 1.1-2.1 4.4-0.2 1.5 0.1 1.7 0.7 2.2 0.3 1.7 0 1.5-0.4 1.6-0.7 0.5-1-0.2-3 0.9-7.9 8.2 0 0.1z" id="ROMH" name="Mehedinti">
  </path>
  <path d="M311.3 612.1l0-0.1 7.9-8.2 3-0.9 1 0.2 0.7-0.5 0.4-1.6 0-1.5-0.3-1.7-0.7-2.2-0.1-1.7 0.2-1.5 2.1-4.4 0.2-1.1 0.5-3.4 0.4-2.3 0.6-1.7 0.8-1.2 5.1-3 1.3-0.1 1.9 0.3 0.5-0.2 0.2-0.8-0.2-0.8-0.6-0.6-0.7-0.4-1-0.2-2-0.2-1.1-0.3-0.8-0.5-0.3-0.9 0-0.9 0.7-2.9 0.2-1.1 0.4-0.8 0.7-0.7 1.9-0.6 1.5-0.7 1.3-1.5 0.5-1 0.7-1 2.1-1.8 0-0.5-0.6-0.3-0.8-0.2-0.7-0.3 0.3-0.4 1.2-0.6 6.1-0.5 1.2-0.7 1.5-0.7 2.4-0.5 5.3 0.2 1.4-1.5 8.8-6.3 9.1-2.9 4.5-0.2 0.9-0.5 0.4-0.8 0.1-1-0.1-1-0.2-0.8-0.2-0.8 0-0.8 0.4-2.1 0.1-1.5-0.1-1.3-0.3-1.1-0.1-1 0-0.9 0.3-1.2 0.5-0.5 0.5-0.2 0.7 0.1 1.2 0.5 1 1 0.7 3.2 0.1 1.1 0.4 1.2 0.8 1 1.6 1 1.5 0.6 3.2 2.1 1 0.8 0.8 1.2 2 6.7 1.1 2 1.6 2.4 2.7 2.8-3.6 4.3-1.3 2.4-0.2 1 0.1 0.9 0.4 1.1 0.8 0.9 3.9 2.2 1 1.1 2.5 3.7 0.8 0.8 1 0.4 1.1 0.2 1.2 0.7 1.4 1.4 1.2 2.7 1.1 1.7 1.2 1.3 2.2 1.7 0.9 1.1 0.8 1.5 0.8 2 1.1 1.5 1 1.1 3.4 2.3 2.4 1 1.2 0.8 1.8 1.9 0.5 1.3 0 1-0.4 0.9-0.4 1.1-0.2 1.7 0.2 2 0.7 3.3 2 3.6 0 0.8-0.6 0.4-1.1-0.2-1.2-0.3-1-0.2-0.9 0.1-0.5 0.4-0.5 0.5-0.1 0.7 0 1.7-0.4 2-0.3 1.1-0.3 1.4 0.2 0.8 0.6 0.8 0.7 0.5 0.8 0.2 3.1 0.2 1.2 0.3 1.3 1 0.5 1.3 0.2 1.4-0.2 1.1-0.3 0.9-1.9 1.1-0.9 0.6-0.5 1.2 0.2 1.1 1.4 2.2 0.2 1.1-0.1 1-1.2 3.6-0.5 0.9-1.4 1-0.3 0.6-0.3 1.6-0.4 0.7-1.8 1.4-0.6 1-5.3 11.2-33.6-8.5-5.5-3.2-2.1-0.4-8.1 1.8-1.5-0.3-2.7-0.4-10.4-5.8-15.3-0.8-8.8 1.3-3.6 1.9-3.3 0.7-2.9 1.3-7.6 0.7-12.8 1.1-3-0.7-2.4-2.1-1.2-2.5-0.1-3 2.4-10.1 1-3 2-1.2 1.9-0.3 3.9-1.3 2.1-0.3 3.3-1.8 1.7-4.1-0.9-4.2-2.2-0.9z" id="RODJ" name="Dolj">
  </path>
  <path d="M719.3 609.2l-0.1-0.1-2.4 0.2-2-1.1-10.1-2-7-4.4-2.5 1.6-11.3 1.2-9.1 5.4-3.4 1-4.4 0-1.1 0.3-1.9 1.2-0.9 0.3-1.9 0.2-3.3 1.1-19 2.9 0-0.1-0.2-1.8 0.3-1.4 0.7-1.7 2.8-4 0.6-1.8 0.2-2.2-0.2-3.3-0.8-2.9-1.3-2.6-2.2-2.4-8.5-5.1-4.5-5.3 1-3.5 2.5-3.9 2.5-3.3 1.7-1.7 1.7-1.2 5.8-2.7 1.1-1.2 0.7-1.1 0.4-1.1-0.1-0.8-0.6-0.5-1.8-0.6-1.3-0.8-0.9-1 0.1-1.8 0.3-0.8 1.7-1.1 7.7-4.1 1.5-0.2 1.4 0.3 1.3 0.7 3.1 2.3 1.2 0.4 1.4 0.2 1.6-0.2 2.3-0.8 0.9-0.6 0.8-0.7 1.5-1.9 0.7-0.6 0.9-0.2 0.8 0.3 3.1 3.1 1.6 1 1.8 0.6 2.5-0.1 1.4-0.2 1.5-0.1 1.1 0.3 2.9 1.7 1.8 0.4 5.5-1 1.9 0.1 2.2 0.5 7.1 3 2.3 0.5 2.9 0 5.6-1.1 17.1 0.4 1.7-0.5 2.8-1.1 2.4-0.3 2.9 0.1 13.4 2.5 2.8 1.4 5.3 1.2 1.3 0.6 1.4 1.3 2.1 2.3 3.9 2.7 8.8 3.7 14.6 4.8-2.9 6.7-2.5 3.2-3.2 2-13.9 3.5-3.5 2.8-1.9 1.2-4 0.7-8-0.1-3.8 1.3-5.1 3.1-0.8 1-0.7 1.2-1.7 1.4-2 1.1-1.6 0.5-14.7-2.4-1.4 1.2-1.2 1.1-1.2 1.7z" id="ROCL" name="Calarasi">
  </path>
  <path d="M573.2 663l-5.9 0.2-1.7 1.2-1.5 1.4-2.1 1.3-2.1 1-1.8 0.4-1.8 0.9-2.2 0.3-4.3-0.3-0.7 0.1-1.4 0.3-4 1.8-2.2 0.5-4.2-0.5-3.5-2.1-3.3-2.5-0.3-0.2-3.2-1.9-3.9-1-12.5-0.9-11.3-4.1-20.3 1.4-4.5-0.6-4.2-1.6 0.1-0.2 1.9-2.6 1.1-1.1 1.3-1 2.7-1.3 0.9-0.7 0.1-1-0.5-2-4.2-6.9-3.4-6.9-2.9-7.7-0.1-2.5 0.6-2 2-2.7 1.7-0.9 1.6-0.5 1.7-0.2 1.3-0.3 1-0.6 2.9-3.1 1.1-0.8 1.2-0.4 3.3-0.7 1.2-0.8 0.6-1.2-0.2-2.5-0.4-2-0.2-2.3 0.1-3.6 1.1-4.5 0.3-3-0.3-6.4-0.8-5.9 0.1-2.1 0.1-1.4 1.2-3.1 4.1-1 5.2 1.3 1.7-0.1 1.5-0.3 1-0.6 0.7-0.6 1.2-1.5 1-0.8 0.9-0.1 3.1 0.5 2.3-0.6 1.3-0.6 2.2-2.1 2-1.2 4.3-0.8 2.2 0 1.7 0.2 1.6 0.4 3 1.5 2.1 0.9 1.1-0.1 1.6-0.5 1.9-1.9 1.1-1.5 1.4-2.5 0.6-0.8 1.3-1.5 0.4-0.8 0-0.8-0.7-1.4 0-0.8 0.5-0.5 1.4-0.2 2.1 0.4 5.4 2.6 2.4 0.2 2.1 1.6 0.2 0.9-0.1 1.2-1.6 2.8-2 5.1-0.5 1.8 0.3 1.1 0.8 1.4 0.9 1.7 1.3 3.6 1 1.6 1.2 0.9 8.4 1.1 1.4 0.5 2.7 2.5 1.9 1.4 0.9 0.9 0.5 1.5 0.4 2.1 0 3.5-0.2 2 0.5 3.8 0 2-0.3 1.5-0.8 0.6-0.9 0.4-1.1 0.1-0.8 0.3-0.9 0.7-0.4 1.1-0.4 2.9-0.4 1.3-1.2 2.5-0.5 1.6-0.2 1.8 0 2.1 0.8 7.7 2.5 13.8 1.1 3.3 2.4 3.3 0.5 1.7 1.6 13.6 0 0.1z" id="ROTR" name="Teleorman">
  </path>
  <path d="M638.9 617l-8.1 1.2-2 0.3-7.6 3.3-7.8 2-3.3 1.8-3.6 4-1.7 2.6-0.7 2.1-11.5 8.5-1 1.6-0.7 1.9-4.6 5.8-2.8 1.6-3.2 3.3-0.2 0.5-2.2 3.7-4 1.8-0.7 0 0-0.1-1.6-13.6-0.5-1.7-2.4-3.3-1.1-3.3-2.5-13.8-0.8-7.7 0-2.1 0.2-1.8 0.5-1.6 1.2-2.5 0.4-1.3 0.4-2.9 0.4-1.1 0.9-0.7 0.8-0.3 1.1-0.1 0.9-0.4 0.8-0.6 0.3-1.5 0-2-0.5-3.8 0.2-2 0-3.5-0.4-2.1-0.5-1.5-0.9-0.9-1.9-1.4-2.7-2.5-1.4-0.5-8.4-1.1-1.2-0.9-1-1.6-1.3-3.6-0.9-1.7-0.8-1.4-0.3-1.1 0.5-1.8 2-5.1 1.6-2.8 0.1-1.2-0.2-0.9-2.1-1.6 2.6-3.4 1.1-1.2 1.8-0.9 2.8-0.8 29.6-1.8 2.4 5.2-0.1 1.7-0.3 2.1-0.5 1.5-1.5 3.1-0.9 2.6-0.9 6.1 0.6 2.5 1 1.7 2.5 1.2 1.9 0.6 1.3 1 0.7 1.6 0.8 0.8 0.9 0.2 1-0.1 1.1 0.1 1.1 0.6 7.3 6.5 1.6 1.1 1.5 0.6 1.6 0.5 1.4 0.2 1.3-0.1 1.2-0.3 1.3-0.7 2.3-1.9 5.2-5.5 4.5 5.3 8.5 5.1 2.2 2.4 1.3 2.6 0.8 2.9 0.2 3.3-0.2 2.2-0.6 1.8-2.8 4-0.7 1.7-0.3 1.4 0.2 1.8 0 0.1z" id="ROGR" name="Giurgiu">
  </path>
  <path d="M719.3 609.2l1.2-1.7 1.2-1.1 1.4-1.2 14.7 2.4 1.6-0.5 2-1.1 1.7-1.4 0.7-1.2 0.8-1 5.1-3.1 3.8-1.3 8 0.1 4-0.7 1.9-1.2 3.5-2.8 13.9-3.5 3.2-2 2.5-3.2 2.9-6.7 2.4-5.9 0.9-1 4-3.3 1.1-1.7-0.2-2-0.6-2.8-0.9-2.5-0.7-1-1.8-0.4-2.3-0.8-2.2-1.2-1.2-1.3-0.4-1.1 1.1-0.4 0.6-1.3 0-4.8 0.7-1.4 0.5-3.1 0.1-1.3-0.4-0.8-5.1-5.7-1.7-1-2.4-0.3-1.8-0.8-1.7-1.8-1.3-2.4-0.8-2.5 0.7-1.8 1-1.5 1.6-0.9 1.5-0.3 1.9-0.1 1.8 0.4 2.9 1.9 1.8 0.5 2-0.8 1.9-1.8 8.7-0.8 4.9 2 4.1 3.9 4.2 3.9 4.1-1 2.1-5.9 5.5 0 4.9 5.9 6.9 2.9 7.6 0 6.3-1.9 5.5 2.9 5.5 1.2-0.5 2 0.3 2.2 0.8 0.6 5.1-1 2.3-1.3 2.2-2.1 1.9-2.6-1.3-2.8 6.7 2.2 1.5 1.1 0.4 2.3-0.8 2.7-1.6 2.2-2.3 0.7 1.7-2.3 1.6-2.6 0.2-2.2-2.2-1.3 0 1 0.7 0.9-0.2 0.5-1.8 0.4-1.4-0.9-0.6-0.1-0.4 0.4-0.4 0.6-0.5 1-1.8 1.4-3 3.2-1.7 0.9-4.7 2.4-1.3 1.2 1.7-3.1 0.3-1.4-1.5-0.2-1.2 0.2-0.9 1-0.4 1.7 1.3 0-0.6 1.4 0.3 1.1 1 0.7 1.3 0.5-3.8 1.2-1.5 1.3 0 2.1 0.4-0.6 0.7-0.7 0.3-0.5 1.3 0.8 1.3 1-0.8 1.9-1.2 3.4-0.8 3.7 0.5 2.6 0.8 0.2 0.7-1 0.6-1.5 0.6-3.2 0.9-1.1 2-1.3 2.8-3.9 1.7-1.8 1.7-0.8 1.9-0.5 1.3-1.4 0.8-1.9 1-2.6-0.6 2.7-0.9 2.2-6.3 12.2-4.5 3.5-8.7 11.7-1 3.1-0.3 1.6-1.2-1-1.6 0.7-1.2 1.1-1 1.6-0.6 1.6-0.2 1.9-0.2 5.1 0.4 1.6 1.6 2.9 1.3 4.2 0.3 2-0.3 1.2 0.6 0.9-1.2-0.8-1.2 0.4-1 1-0.5 1.3 0.6 2.5 1.6 10.9 1.7 6.9 0 0.7-0.2 1.1-0.9 1.3-0.5 2.5-1.3 3.9-0.3 1.8-2.3 4.6-0.5 1.3-1.5 7.3-0.5 1.2-0.3 1.3 0.4 1.2-0.4 1.2-0.2 1.4-0.1 1.4 0.1 1.4-0.4 1.3-13.9 0.8-20.5-3.6-19.8-9-3.3-2.6-4.3-15.3-2.3-3.9-5.3 0.6-6.7 3.8-6.3 1.5-3.8-5.1-0.6-0.8-1.9-4.1-2.2-0.8-5.6 1.8-18.4 0.2-1-0.8-1.9-3.3-1.1-1-5.4-2.6-2.1-2.3 0.5-3-1.6-1.3z" id="ROCT" name="Constanta">
  </path>
  <path d="M421 658.2l5.3-11.2 0.6-1 1.8-1.4 0.4-0.7 0.3-1.6 0.3-0.6 1.4-1 0.5-0.9 1.2-3.6 0.1-1-0.2-1.1-1.4-2.2-0.2-1.1 0.5-1.2 0.9-0.6 1.9-1.1 0.3-0.9 0.2-1.1-0.2-1.4-0.5-1.3-1.3-1-1.2-0.3-3.1-0.2-0.8-0.2-0.7-0.5-0.6-0.8-0.2-0.8 0.3-1.4 0.3-1.1 0.4-2 0-1.7 0.1-0.7 0.5-0.5 0.5-0.4 0.9-0.1 1 0.2 1.2 0.3 1.1 0.2 0.6-0.4 0-0.8-2-3.6-0.7-3.3-0.2-2 0.2-1.7 0.4-1.1 0.4-0.9 0-1-0.5-1.3-1.8-1.9-1.2-0.8-2.4-1-3.4-2.3-1-1.1-1.1-1.5-0.8-2-0.8-1.5-0.9-1.1-2.2-1.7-1.2-1.3-1.1-1.7-1.2-2.7-1.4-1.4-1.2-0.7-1.1-0.2-1-0.4-0.8-0.8-2.5-3.7-1-1.1-3.9-2.2-0.8-0.9-0.4-1.1-0.1-0.9 0.2-1 1.3-2.4 3.6-4.3 3.7-2.3 1-0.3 1.3-0.3 1 0.2 1 0.5 0.9 0.7 0.8 0.9 0.9 1.6 0.7 0.7 0.8 0 1.1-0.5 3.1-4.4 0.9-1.1 1.2-0.7 1.1-0.1 1.2 0 2.2 0.6 1 0.1 1-0.3 2.8-1.6 0.8-1 0.6-2.8 0.5-1.2 1.2-0.9 0.9 0 0.5 0.3 0.2 0.5-0.1 1.4 0 0.9 0.2 0.8 0.5 1 0.7 0.9 0.9 0.5 0.7-0.7 0.8-0.6-0.3-2.5-0.7-3.1-1.1-2.5-1.1-1.7 0.4-2.3-1.3-5.9-0.4-2.9 0-1.1 1.8-1.9 1.5-2.4 0.9-1.7 0.5-1.5 0.7-3 0.2-1.9 0.3-1.6 0.5-1.5 2.7-4.8 0.7-1 0.8-0.9 1-0.5 0.9-0.1 1 0.3 0.7 1.1 0.5 1-0.2 6.3 1.1 3.2 0.7 0.6 0.8 0.3 0.9-0.4 3.9-3.3 0.6-0.8 0.4-0.9 1-2.4 1-1.5 0.8-0.5 0.9 0.1 0.5 0.7 0.2 1.1 0 1.2-0.2 1.3 0.1 1.6 0.7 1.8 4.3 8.9 1.1 1.6 1.9 1.8 1.5 0.5 1.6 0 1.5-0.4 1.6 0.2 0.8 0.5 0.5 0.7-0.1 0.6-0.5 0.3-1.7 0.8-0.8 0.5-0.6 0.7-0.3 0.8 0.3 1.3 2.3 3.9 0.8 2.1 0.5 3 0.1 1.6 0.3 1.3 0.7 2.2 0.9 6.1 0 0.9-0.5 1.8-0.2 1.1 0 1.2 1.2 4.5 0.4 5.9 0.5 2 0.7 1.2 0.9 0.6 4.6 0.4 2.1 1.4-1.2 3.1-0.1 1.4-0.1 2.1 0.8 5.9 0.3 6.4-0.3 3-1.1 4.5-0.1 3.6 0.2 2.3 0.4 2 0.2 2.5-0.6 1.2-1.2 0.8-3.3 0.7-1.2 0.4-1.1 0.8-2.9 3.1-1 0.6-1.3 0.3-1.7 0.2-1.6 0.5-1.7 0.9-2 2.7-0.6 2 0.1 2.5 2.9 7.7 3.4 6.9 4.2 6.9 0.5 2-0.1 1-0.9 0.7-2.7 1.3-1.3 1-1.1 1.1-1.9 2.6-0.1 0.2-15.6-5.9-3.2-0.3-3.4 1.1-5.4 4-1.6 0.5-2.1 0.1-17 0.8-1-0.2z" id="ROOT" name="Olt">
  </path>
  <path d="M164.8 469.9l1.9-1 1.7-2.3 0.5-1.1 0.5-1.4 0-1.3-0.5-3.8 0-1.4 0.3-1.1 1.9-2.4 0.3-0.8 0.1-0.8-0.3-1.3-0.1-0.8 0.1-0.8-0.1-1-0.3-1-0.5-1-0.7-0.8-1.9-1.6-3.3-3.4-0.6-1.1-0.3-1.2-0.1-1.1 0.3-1.1 1-2 0.4-1.2 0-1.2-0.2-1.4 0-1.1 0.9-1.3 1.7-1.5 4.1-2.3 1.3-1.4 0.7-1.3 0-1.4 0.2-1.5 0.4-1.5 0.9-1.4 1.7-1.2 2.8-0.9 3 0 1.5 0.4 1.8 1.1 2.2 0.6 1.1 0.5 1 0.7 1.2 1.6 0.7 0.6 1.7 0 2.4-0.6 4.4-2 3.4-2.2 1-0.2 1.4 0.4 0.9 0.8 0.7 1.1 0.9 2.2 0.5 1 0.7 1 0.8 0.7 1.1 0.5 1.2 0.2 2-0.3 1.8-0.7 2.5-1.7 0.6-0.9-0.1-0.5-1.3-0.1-0.5-0.1-0.4-0.4-0.2-0.6-0.2-1.6-0.2-0.9 0.1-0.7 0.6-0.5 3.4 0 2.2-0.4 2-0.7 2.4-1.6 2.5-2.2 1-0.4 1.3 0.2 0.7 0.6 1.2 1.4 0.6 0.3 0.9 0.2 1.3-0.1 0.9 0.1 0.8 0.2 0.7-0.1 0.5-0.4 2.7-5.6 3.6-2.5 10.6-2 0.8 3.1 2.8 3.9 1.3 0.9 1.4 0.5 1.1 0.2 1.4 0.4 0.5 0.7 0.1 0.9-0.2 1 0.1 1.1 0.6 0.4 0.8 0 0.9-0.2 1 0.2 0.6 0.7 0.6 1.1 1.2 1 1.8 1.2 3.2 2.5 1.5 1.8 0.9 2 1.1 4 0.3 1.6 0.1 1.5 0 1.5 0.4 2.3-0.2 1.2-0.5 1.4-1.2 1.8-0.3 0.9 0.2 1.2 0.7 1.3 1.3 1.9 0.6 1.4 0.2 1.3 0 1.1-0.2 1-0.6 1.1-2 3.2-0.5 1.1-0.2 1-0.1 2.7-6.5 5.8-2.8 3.7-0.8 1.8-0.1 1.4 0.3 1.1 0.8 0.6 1.2 0.5 3.7 0.2 0.9 0.3 0.6 0.8 0.5 1.1-0.5 2.8-4.1 4.4-3.1 5-0.7 2-0.4 1.6-0.1 1.4-0.3 1.8-0.6 2.2-1 3.1-4 6.8-2.4 6.1-1.5 6.5-1 3-0.9 1.5-1 0.8-1.5 0.3-1-0.1-0.7-0.4-0.5-0.6-0.6-1.4-0.7-0.6-0.6-0.4-0.9-0.2-3.1 0.1-1-0.1-0.7-0.4-0.7-0.5-3.3-3.3-0.9-0.5-1-0.2-1.4 0.3-0.6 0.7-0.3 1 0 1.1-0.4 1.8-0.9 2.2-2.1 3.7-1.1 2.3-0.6 2-0.4 1.6-0.2 1.7 0.1 1.8 0.7 2.3 0.5 1.8 0.1 1.7-0.5 1.7-0.7 1-1.1 0.5-1.1 0.2-1.1-0.1-2.4-0.7-1.3-0.1-2.9 0.5-2.3 0.4-0.2-0.9-2.7-6.6-1-0.9-3-0.5-8.7-4.6-1.6-0.3-1.7 0.4-3.5 1.6-4.3 0.9-5 0-4.7-1.4-3.5-3.6-0.9-2.4-0.6-2.5-0.8-2.1-1.7-1.6-1.9-0.6-5.9 0.5-8.1-0.9-1.6-0.7-1.7-3.6-1.7-1.3-0.1-0.1-1.6-0.7 0.3-1.8 0.9-1.5 1.3-1.1 2.5-1 5.6 0.3 2.7-0.4 3.9-1.1 1.4-1.2 0.3-2.6-0.8-2.1-1.4-1.3-3.4-1.3-2.4-1.2-4.6-0.8-2.2-1.5-0.1-0.8 0.3-0.9-0.3-0.7-1.7-0.1-1.3-0.3-0.2-1.1 0.5-1.5 0.7-1 0.9-0.5 2.5-0.2 1-0.3 1.2-1.1 0.3-0.6 0.1-1 0.3-1.9 0.3-0.6 0.8-0.9 0.3-0.6 0.1-0.7 0-1-0.1-0.8-0.1-0.2 0.7-1.1 0.8-0.9 1-0.5 1.2-0.1 1.2-1 0.4-1.7-0.4-1.8-0.9-1.1z" id="ROCS" name="Caras-Severin">
  </path>
  <path d="M736.5 132.7l-1.4 0.7-3.9 1.8-3.9 0-1.6-0.4-1.1 0.1-1.1 0.7-1.7 1.9-0.9 0.8-0.8 0.9-0.5 1.1-0.4 2.4-0.7 1.1-1.2 0.5-2.6 0.1-1.3-0.4-1.6-0.9-1.8-0.7-2.6-0.6-1.6-1.2-0.8-0.3-1.1 0.2-1 0.8-0.7 0.9-0.3 1.1 0.2 1.2 1.7 3.9 0.1 1.2-0.5 1-1 0.8-2 0.7-1.5 0.3-1.8-0.6-1.2-0.9-1-1.1-1.4-1.8-0.8-0.7-0.8-0.6-1-0.3-16.1-0.1-1.5-0.3-1.1-0.6-1.8-1.3-0.9-0.1-0.9 0.4-0.7 0.9-0.4 1.5-1.4 2.9-3.9 3.8-4-0.6-1-0.7-1.4-1.2-2.3-3.4-0.5-1.4-0.3-1.6 0.1-1.7 0.2-2-0.1-1.9-1.5-7.4-0.9-3.1-1-1.7-3-3.2-1.2-2-6.4-8-1.8-3.1-11-14-2.2-2.3-4.9-2.8-3.9-3.3-2.6-1.6-1.4-1.5-0.7-1.6-1.6-8.7 2.2 0 2.9-1.4 0.1 0 0.2 0 0.2-0.1 0.2 0 0.1 0 0.1-0.1 0.4-0.1 1.4-0.7 0.2-0.1 0.1-0.2 0.7-0.7 0.4-0.8 0.2-0.5 0.2-0.6 0.1-0.6 0.2-0.6 0.2-0.7 0-0.1 0-0.2 0-0.1 0-0.2 0.1-0.2 0-0.1 0-0.2 0.1-0.4 0-0.4 0.7-0.9 2.5-2.1 1-1.2 0.5-0.4 0.2-0.1 0.4-0.2 0.1 0 0-0.1 0.1 0 0.3-0.4 0.2-0.3 0.1-0.2 0.2-0.5 0.1-0.5 0.1-0.8 0.2-0.4 0.3-0.4 0-0.1 0.2-0.8 0-0.6 0-0.3 0.1-0.3 0.1-0.4 0-0.1 0.3-0.5 0.4-0.8 0.3-0.6 0-0.2 0.5-0.5 0.5-0.8 0.2-0.2 0.6-0.7 0.7-0.4 0.4-0.2 0.3-0.4 0.3-0.5 0.1-0.3-0.1-0.6 0-0.1 0-0.1-0.4-0.8 0-0.1-0.2-0.4 0-0.2 0.1-0.4 0.4-0.3 0-0.2 0-0.1 0.1 0 0 0.1 0.1 0 0.1 0 0.1 0 0.1 0.1 0.2 0 0.1 0 0.1 0 0.2 0 0.2 0 0.1-0.1 0.1-0.1 0.1-0.1 0-0.1 0-0.1-0.1-0.1-0.1-0.3 0-0.1 0-0.1 0.1-0.1 0.1 0 0.1-0.1 0.1 0 0.1 0.1 0 0.1 0.1 0.1 0.1 0.3 0 0.2 0.1 0 0 0.1 0.1 0.1 0.1 0 0.2-0.1 0.1-0.1 0.2-0.2 0.1 0 0.2-0.2 0.2-0.2 0.1-0.1 0.1-0.1 0-0.1-0.1-0.1 0-0.1 0.1-0.1 0-0.2 0.1-0.1 0.1-0.1 0.1 0 0.1-0.1 0.2 0.1 0.2 0 0.2 0 0.1 0.1 0.1 0 0.1 0.1 0 0.1 0 0.1-0.1 0.1-0.3 0.2 0 0.1 0 0.1 0 0.1 0.2 0.2 0.1 0.1 0.1 0.1 0 0.1 0.1 0 0 0.1 0.1 0 0.2-0.1 0.1-0.1 0.2-0.2 0.1 0 0.2 0 0.1 0 0.2 0.1 0.1 0 0.2-0.1 0.2 0 0.1-0.1 0.2-0.1 0.2-0.2 0.2-0.2 0.2-0.2 0.3-0.2 0.1-0.2 0.1-0.1 0.1-0.2 0-0.1 0.1-0.1 0.1-0.1 0.1 0 0.1 0 0.1 0 0.1 0.1 0.1 0.1 0.2 0.2 0.1 0.1 0.2 0.1 0 0.1 0.1 0.1 0 0.1 0 0.1 0 0.1 0.1 0.1 0.1 0 0.1 0 0.2-0.1 0.1 0 0.1-0.1 0.1-0.1-0.1-0.1 0-0.1-0.1-0.2-0.3-0.2-0.1-0.1-0.1-0.1 0-0.1 0-0.1 0-0.1 0.1-0.1 0.2-0.1 0.1-0.1 0.1 0 0.3 0 0.3 0.1 0.2 0 0.2 0 0.1-0.1 0.5-0.1 0.2-0.1 0.1-0.1 0-0.2 0.1 0 0-0.1-0.1-0.1 0-0.1-0.1-0.1-0.1-0.1 0-0.1 0-0.1 0.1-0.1 0.1-0.1 0.1 0 0.1-0.1 0.1 0 0.1 0 0.1 0 0.1 0 0-0.1 0.1-0.1 0-0.2 0.1-0.2 0-0.1 0.1-0.1 0.1 0 0.1 0 0.1 0 0.1 0.1 0.1 0 0.1 0.2 0.1 0.1 0.1 0.1 0.1 0.1 0.1 0.1 0.2 0.1 0.1 0 0.1 0 0.2 0 0.1 0 0.1-0.1 0.1 0 0.1-0.1 0.1 0 0.1-0.1 0.1-0.1 0.1 0 0.1 0 0.1 0 0.4 0.1 0.3 0.1 0.2 0.1 0.1 0 0.1 0.1 0.2 0.1 0.1 0.2 0.1 0.1 0.1 0.1 0 0.1 0.1 0 0.2 0.1 0.2-0.1 0.1 0 0.1-0.1 0.2-0.2 0.1 0 0.1 0 0.1 0 0.1 0.1 0 0.1-0.1 0.1 0 0.2-0.1 0.1 0.1 0.1 0.1 0 0.1 0 0.1-0.1 0.1 0 0.2-0.2 0.4-0.3 0.2-0.1 0.1 0 0.2-0.2 0.1 0 0.5 0 0.1-0.1 0.1 0 0.1-0.1 0.1-0.1 0-0.2 0.1 0-0.1-0.1 0-0.1-0.1-0.2-0.1-0.1 0-0.1 0-0.1 0.1-0.1 0-0.1 0.1-0.1 0.1 0 0.1 0 0.1 0 0.1 0 0.1 0 0.2 0.2 0.1 0.1 0.1 0 0.1 0.1 0.1 0 0.2 0.1 0.2 0 0.2 0.1 0.1 0.1 0.1 0.1 0.2 0 0.1 0 0-0.1 0.1-0.1 0-0.2 0-0.1-0.1-0.4 0-0.1-0.1-0.1-0.2-0.3 0-0.1 0-0.1 0-0.2 0.1-0.1 0-0.1 0.1-0.1 0-0.2 0-0.1 0-0.1 0-0.1 0-0.1 0-0.1 0.1-0.1 0.1-0.1 0.2-0.3 0.1-0.1 0.2 0.1 0.1 0 0.1-0.1 0.1-0.1 0.2-0.2 0.1 0 0.1-0.2 0.1 0 0.1 0 0.1 0 0 0.1 0.1 0.1 0.2 0.2 0 0.2 0.1 0.1 0.2 0.2 0.1 0.1 0.1 0.1 0.1 0 0.1 0 0.1 0 0.1-0.1 0.1 0 0.2 0 0.2 0 0.2-0.1 0.2 0 0.1 0 0.1 0 0.3 0.1 0.2 0.1 0.1 0 0.1-0.1 0.1 0 0-0.1 0-0.1-0.1-0.1 0-0.2-0.2-0.3-0.1-0.3 0-0.1-0.2-0.2-0.1-0.1 0.1-0.1 0.1 0 0.1 0 0.2 0 0.1 0 0.1 0.1 0.1 0.1 0.1 0.1 0.1 0.1 0 0.1 0.1 0.1 0.1 0 0.1 0 0.1 0 0-0.1 0.1-0.2 0.1-0.3 0-0.2 0-0.1 0-0.1-0.1-0.3 0-0.1 0-0.2 0-0.2 0.1-0.1-0.2-0.4 3.6-1.7 2.2-0.1 2.2 2 1 0.2 1.1-1.6 1 2.2 1.9 0.4 4-0.8 1.6 0.8 2.2 2.8 1-0.7 4.1 4.2 0.5 1 0.1 0.1 0.1 0.9 0.3 1.5 0.9-0.5 0.1-0.1 1-1.5 0.1-0.1 0.8-0.7 1.2 1.1 0.5 1.6 0.7 1.6 3.3 1.2 0 1.3-0.7 0.7-0.4 0.4-1.9 0.1 0 0.2 0 0.7 2.7 1.5 1.5 0.6 0.3 0.1 1.1-1 0.4 0.1 0.5 0.3 0.3 0.3 0.3 0.2 0.2 0.2 0.6 0.7-0.1 0.1 0 0.7-0.9 1.1-0.1 0.3-0.3 0.8 0.2 0.7 0.4 2 0.1 0.8 0.2 0.3 0.8 1.3 0.7 1.2 2.3 2 2.5 1.5 0 1-1.6 0.8 0 0.1-0.2 0.6 0 0.2 0.1 0.4 0.2 0.5 0.2 0.4 1-0.4 1.5-0.7 0.5 0.7 0.8 1.1 0.5 1.2 0.4 0.8 1.2-0.7 0.4 0.4 0.8 0.8 0.1 1.4-0.7 1.2-0.9 0.8 1.9 1.4 0.5 0.4-0.1 0.1-0.1 0.2 0.2 0.1 0 0.2 0 0.1 0 0.6-1.7 2.3 0.9 1.2 1.2 0.8 1.1 0.6 0.1 0.1 0.5 0.6 1.1 1.4 0 0.6 0.1 4.4-0.1 0.9 1.1 0.8 1.1 0.3 0.9 0.4 0.1 0.1 0.1 0 0.7 1.3-3.1 1.9-0.2 0.1 1.1 1 0.1 0.1 0.9 1.3 0.4 0.6 0.3 0.8 0.2 0.4 0.6 1 0.4 1.2 0.4 0.6 0 0.1 0.6 0.4 1.1 0.8 0.2 0.3 0.3 0.2 0 0.2 0.1 0.3 0.1 0.5 0.1 0.4-0.1 1.5 0.1 0.4 0.4 0.6 0 0.1 0 0.9-2.2 0.4 0.6 2.2 0.1 0.4 0.2 0.6 0.9 1.6 0.5 0.9 0.8 1.2 4.8 6.4 0.9 1.2 0.5 0.8 2.7 2.7 0.9 0.3 1.2 0.5 0.9 0.3 0 0.1 0.1 0.4 0.2 0.7z" id="ROBT" name="Botosani">
  </path>
  <path d="M662.2 153.5l3.9-3.8 1.4-2.9 0.4-1.5 0.7-0.9 0.9-0.4 0.9 0.1 1.8 1.3 1.1 0.6 1.5 0.3 16.1 0.1 1 0.3 0.8 0.6 0.8 0.7 1.4 1.8 1 1.1 1.2 0.9 1.8 0.6 1.5-0.3 2-0.7 1-0.8 0.5-1-0.1-1.2-1.7-3.9-0.2-1.2 0.3-1.1 0.7-0.9 1-0.8 1.1-0.2 0.8 0.3 1.6 1.2 2.6 0.6 1.8 0.7 1.6 0.9 1.3 0.4 2.6-0.1 1.2-0.5 0.7-1.1 0.4-2.4 0.5-1.1 0.8-0.9 0.9-0.8 1.7-1.9 1.1-0.7 1.1-0.1 1.6 0.4 3.9 0 3.9-1.8 1.4-0.7 0.4 1.9 0.3 0.8 0.2 0.6-0.1 1.2 0.2 0.6 0 0.1 0.4 0.2 1 0.2 0.1 0 0.2 0.1 0.7 3.8 0.6 2.1 0.9 0.7 0.1 0.2 0.9 0.1 0.5 0.3 0.3 0.3 0.5 0.3 0.1 0 0.5 0 0.8 0.1 1.2 0 0.1-0.1 1 0.4 0.3 0.1 1.5 0.9 0.7 0.7 0.2 0.2 0.3 0.2 0.7 1.4-0.8 0.6-0.5 1.1-0.4 1.5-0.1 0.6-0.2 1.1 1.2 1 0.3 0.2 0.2 0.2-0.2 1.1-0.5 3.3 0.3 0.2 0.2 0.2 0.8 0.5 0.2 0.2 1 0.9 0.1 0.1 1 2.4 0.4 0.8 0.7 1.7 0.2 0.7 0.3 0.4 1 1.6 0.7 0.4 0.1 0.1 2.3 0.5 0.2 0 0.2 0.1 0.7 0.5 0.1 0.1 0.7 0.6 0.1 0 0.7 0.5 2.4 0.6 1 1 1.5 2.6 0.2 0.4 0.3 0.5-0.1 0.8 0 0.9 0.7 1.3 0.3 0.5 1.7 2.2 0.4 0.5 0.3 0.4 0 0.1 0.7 2.3 0.3 1 0.2 0.5 0.1 0.1 0.3 1.1 0.1 0.4 0.2 0.5-0.1 0.3-0.1 0.3-0.3 0.1-0.1 0.1 0 0.1 0 0.3-0.4 0.1 0.9 1.2 2.9 1.6 1.2 0.7 0 0.6 0 0.3-0.6 1.1 0.1 0 0.4 0.4 0.6 0.2 0.3 0.1 0.7 0.5 0.2 0.1 1.3 1.5 0.5 0.6 1 1 0.1 0.2 2.7 1.8 1 0.8 0.2 0.3 0.1 2 2.3 0.5 1.5 0.9 0.5 0.3 0.3 0.2 1 0.5 1.1 0.5 1.9-1 0.1 0.4 0.7 1.9 0 0.1 0.1 0.1 1.6 2.1 1.4 1.7 1.3 2.4 0.2 0.5 0.8 2.3 0.4 1.1 0.5 1.2 0 0.4 0.1 0.7 0.1 0.3 0.1 0.7 0 0.4-0.4 1-0.4 1.1 1.6 1.1 0 0.3 0 0.5 0.1 0.8-0.1 0.4 0 0.7-0.1 0.6 1.1 1.4 0 1 0 0.1 0 0.3-0.1 1.3-0.1 0-0.7 0.4-0.2 0-4.6 0.6-1.7 1.1-0.6 0.6-0.9 0.5-1.2 0.1-1.1-0.6-0.9-0.8-0.9-0.6-0.8-0.1-1.2 0.8-0.3 0.9-0.9 0.6-1.4 0-3.5-1.2-3-1.9-1.1-0.3-1.5 0.2-1.3-0.2-1-0.7-0.1-1 0.2-1.1 0.5-1.2 0.9-2.9 0.1-1.5-0.4-1.4-0.8-0.8-1.2-0.2-1.3 0.9-0.4 1.3-0.1 1.4 0.1 1.3-0.3 0.7-0.7 0.1-1.1-0.8-3.6-4.8-2.7-2.8-5.7-4.5-1.3-0.6-1 0-0.8 0.9-0.1 1 0.2 1.1 0.5 1 0.1 1.1-0.1 1.2-0.4 2 0.1 0.7 0.7 0.4 1.1 0.1 1.8-0.2 0.6 0.1 0.3 0.5 0 0.8-0.2 0.9-0.5 0.9-1.1 0.6-1.9 0.3-3.7-0.7-1.7-0.7-1.3 0-0.6 0.9-0.5 1.1-0.6 1.1-1.1 0.9-3.5 1.2-1.7 0.1-2.4-0.6-1.7-0.7-1.8-0.4-1.9-0.1-7.2 1.3-11.1-0.7-0.5-1.9-0.5-1.2-1.7-3-2.1-2.8-1-1.6-0.1-1.5 0.6-1.4 1.3-1.3 1.6-0.9 1.7-0.7 2.9-0.7 0.8-0.6 0.4-1-0.6-1.3-1.3-1.5-2.2-1.9-1.2-1.4-0.8-1.4-0.4-1.3-0.4-1.3-0.7-1.1-1.2-0.6-2.2-0.2-1.6 0.4-1.2 0.7-3.4 3.9-1 0.9-1.1 0.5-1.7-0.2-4.6-1-1.4 0.3-0.8 0.8-0.8 2.4-0.6 0.8-0.8 0.5-1.4 0.1-3.9-0.9-2.5-1.3-5.7-4.5-3.7-2-2.7-0.8-2.3 0-1.8 0.2-1.6-0.1-1.3-0.7-0.8-1.9-0.7-2.2-2.9-7.2-4.9-7.2-6.6-6.5 7.3-1.7 1-0.8 0.9-1.1-0.5-1-5.9-5.5-1.1-2.3 0.4-1.3 1.6-0.5 10.1 1.2 2-0.4 0.9-0.7 0.4-1.4 0.1-1.7 1-2.6 0.3-1.5-0.2-1.3-1.4-2z" id="ROIS" name="Iasi">
  </path>
  <path d="M714.7 233.7l11.1 0.7 7.2-1.3 1.9 0.1 1.8 0.4 1.7 0.7 2.4 0.6 1.7-0.1 3.5-1.2 1.1-0.9 0.6-1.1 0.5-1.1 0.6-0.9 1.3 0 1.7 0.7 3.7 0.7 1.9-0.3 1.1-0.6 0.5-0.9 0.2-0.9 0-0.8-0.3-0.5-0.6-0.1-1.8 0.2-1.1-0.1-0.7-0.4-0.1-0.7 0.4-2 0.1-1.2-0.1-1.1-0.5-1-0.2-1.1 0.1-1 0.8-0.9 1 0 1.3 0.6 5.7 4.5 2.7 2.8 3.6 4.8 1.1 0.8 0.7-0.1 0.3-0.7-0.1-1.3 0.1-1.4 0.4-1.3 1.3-0.9 1.2 0.2 0.8 0.8 0.4 1.4-0.1 1.5-0.9 2.9-0.5 1.2-0.2 1.1 0.1 1 1 0.7 1.3 0.2 1.5-0.2 1.1 0.3 3 1.9 3.5 1.2 1.4 0 0.9-0.6 0.3-0.9 1.2-0.8 0.8 0.1 0.9 0.6 0.9 0.8 1.1 0.6 1.2-0.1 0.9-0.5 0.6-0.6 1.7-1.1 4.6-0.6 0.2 0 0.7-0.4 0.1 0-0.2 1.1 1.6 4 0.4 0.7 1.9 3.2 0.4 0.6 1.2 2.1 0 0.2 0 2.1 0 0.4 0.9 1.8 0.3 0.6 3.2 6.5 0.1 0.1 0.9 1.8 0.2 1.1 0.2 0.7 0.2 0.3 0.2 0.2 0 0.1 0.1 0.3 0 0.2 0.1 0.4 0 0.1 0 0.1 0 0.1 0 0.1 0 0.3 0.1 0.4 0.2 0.4 0.1 0.2 0.1 0.4 0.1 0.3 0 0.1 0 0.1 0 0.2 0 0.1 0 0.7-0.2 0.4-0.2 0.1 0 0.4-0.6 1.5-0.1 0.1-0.9 1.6-0.1 0.5-0.3 1.5 0.1 0.4 0 0.1 0.1 0.3 0.6 1.5-0.9 0.6-0.4 1.1 0 0.9-0.1 3-0.1 1.3 0.1 0.4 0.1 0.7 0.7 1.4 0.6 1.1 0.1 0.1 0.3 0.3 0.4-0.2 0.3 0.2 0 0.4 0.1 0.7 0 0.4 0 1.1 0 1.3 0 1.6-0.1 1.1-0.5 1.1-1.4 0.7 0.3 0.9 0.4 1-0.2 0.3-0.3 0.4-0.1 0.1-0.5 0.2-0.2 0.1-0.1 0.1-0.6 0.6-0.1 1.4-0.4 2.5 0 0.3-0.5 0.6-0.8 0.3-0.3 0.1-0.1 0.2-0.1 0.7-0.1 0.1 0.2 0.9 0.2 1.5 0 0.5 0.1 1.7-0.1 0.4-0.4 0.8-0.6 1.3-0.3 0.8-0.1 0.1-1.1 1.1-0.9 0.5-1.1 0.3-0.8 0.4-0.1 0.1-0.4 0.9 0 0.1 0.1 0.8 0.1 1.1 0.1 0.4-0.2 0.8-1.1 0.3-1 0.4 0.1 0.1 0 0.1 0 0.2 0 0.4-0.1 0.2 0 0.3 1.3 2.1 0.1 0.2 0.4 0.6 0.6 0.8 0.5 0.9 0.1 0 0 0.2 0.3 1.1-0.2 0.4-0.2 0.5-0.2 0.8-0.5 1.5-0.1 0.2-0.3 2.2-0.2 1-0.1 0.2 0.1 0.2 0.1 0.2 0.1 0 0 0.2 0 0.6-0.4 0.7-0.3 1 0 0.1 0 0.2-0.1 0.1 0 0.3-0.1 0.1 0 0.1-0.2 0.3-0.4 0.3-0.2 0-0.1 0.1-0.3 0.7 0 0.1-0.1 0-0.3 0.2-3.1 0.7-1.5-0.1-2.4-0.6-3.6-1.9-7.2-2.3-1.4-0.1-1.5 0.7-0.9 0.8-0.8 1.1-0.9 2-0.6 0.9-0.8 0.5-1 0-0.7-0.8-0.2-1 0-1.1-0.8-0.8-1.5-0.6-16.5-2-1.3 0.8-0.4 0.9 0.2 1.1 2 3.7 0.5 1.3 0.3 1.2 0 1.3-0.6 3.7 0 2.2-0.2 0.8-0.3 0.6-0.5 0.4-0.7 0.2-1-0.8-0.8-1.5-1.2-3.5-0.9-3.9-1.2-2.5-3.3-4.5-1.3-6.4-0.6-17.6-1.1-6.4-2.2-8.6-3.6-8.6-10-17.6-0.5-3.2 0.4-3.1-0.1-3.5-1.1-2.5-1.9-2-4.3-3.7-1.3-1.4-0.6-1-1.4-1.7 1.1-2.3 0-1.6-0.4-2.2-2.1-5.9-0.6-4.4z" id="ROVS" name="Vaslui">
  </path>
  <path d="M746.3 337.4l3.3 4.5 1.2 2.5 0.9 3.9 1.2 3.5 0.8 1.5 1 0.8 0.7-0.2 0.5-0.4 0.3-0.6 0.2-0.8 0-2.2 0.6-3.7 0-1.3-0.3-1.2-0.5-1.3-2-3.7-0.2-1.1 0.4-0.9 1.3-0.8 16.5 2 1.5 0.6 0.8 0.8 0 1.1 0.2 1 0.7 0.8 1 0 0.8-0.5 0.6-0.9 0.9-2 0.8-1.1 0.9-0.8 1.5-0.7 1.4 0.1 7.2 2.3 3.6 1.9 2.4 0.6 1.5 0.1 3.1-0.7 0.3-0.2 0.1 0 0-0.1-0.1 0.4-0.5 1.6-0.7 0.4-0.1 0.1-0.2 0.6-0.1 0.2 0.1 0.6 0.3 0.2 0.2 0.2 0.1 0.7 0 0.1-0.2 0.9-1 4-0.2 1.3 0.3 2 2.4 6.9 0.2 1.6 0.2 0.8 0.6 0.9 0.2 0.6 0.2 0.5-0.2 1.1-0.4 1-0.1 1.1 0.2 1.1 0.3 0.5 0.6 1.2 0.2 0.5-0.3 0.7-0.4 0.3-0.5 0.3-0.4 0.3-0.4 0.8 0 0.4 0.1 1.1 0.2 2.5 1.5 4.2 1.1 2.1 0.5 1.2 0.3 0.3 0.6 0.9 0.1 2.9 0.7 11-0.1 1 0 0.7-0.1 0.5 0.3 0.9 0.3 0.8-1.4 0.7-0.3 0-2.8 0-0.3 0.1-0.6 0.2-0.4 0.2-1.6 1.1-1.5 1.5-1.3 1.6 5.4 2.9 2.2 1.7 1.6 2.9 0.4 0.8 0.2 0.3 0.2 0.4 0 1.4 0 2.4 0 0.8 0.7 1.4 2.5 3.1 1.3 1.6 0.2-0.1-0.1 0.3-1.3 1.6-0.4 1.1-0.1 0.7-0.4 0.9-0.3 0.4-0.6 0.2-1-0.2-2.8-1.4-1.6-0.5-0.9 0-1 0.2-4.2 1.4-1 0.2-0.7 0.5-1.3 2.2-5.8-0.8-2.4-0.8-2.3-0.4-6.3 0.3-3.4-0.7-5.3-2.8-3.3-2.9-1.9-2.4-0.8-0.7-1.2-0.3-1.7 0.3-3.4 0.2-5.5-2.4-2.6-2.8-0.9-1.6-1.8-4.8-0.2-1.1 0-1.3-0.1-1.5-0.7-3.1-0.8-1.9-1-1.6-2.1-2-0.6-1.1-0.5-0.9-0.5-0.8-1-0.7-2.6-1.3-0.9-0.9-2.5-3.6-0.6-1.3-0.6-1.7-0.6-2-10.3-25.9-0.8-3.7 0.1-3 0.3-1.6 0.6-1.4 0.8-1 1.4-1.5 2.4-2.9 2.1-1.9 1.8-1 2.7-0.6 3.4-0.2 1.5-0.5 1.6-1.5 0.9-1.2 1.2-1.1 0.9-0.6 5.5-0.4z" id="ROGL" name="Galati">
  </path>
  <path d="M608.8 74.7l1.6 8.7 0.7 1.6 1.4 1.5 2.6 1.6 3.9 3.3 4.9 2.8 2.2 2.3 11 14 1.8 3.1 6.4 8 1.2 2 3 3.2 1 1.7 0.9 3.1 1.5 7.4 0.1 1.9-0.2 2-0.1 1.7 0.3 1.6 0.5 1.4 2.3 3.4 1.4 1.2 1 0.7 4 0.6 1.4 2 0.2 1.3-0.3 1.5-1 2.6-0.1 1.7-0.4 1.4-0.9 0.7-2 0.4-10.1-1.2-1.6 0.5-0.4 1.3 1.1 2.3 5.9 5.5 0.5 1-0.9 1.1-1 0.8-7.3 1.7-3.4-3.9-1.4-1.1-1.7-0.7-1.9-0.5-1.9 0-2.2 0.6-9 4.7-3.5 0.8-10.8 0-5 1.3-1.8-0.1-1.6-0.5-1.2-0.8-1.3-0.5-1.4 0.1-7 3.3-1.7 0.3-1.3-0.2-1.2-0.8-4.4-4.2-1.3-0.8-1.2-0.5-1 0.1-0.8 0.4-0.4 0.8 0.3 1 1.7 2.4 1.9 1.8 0.7 1.1 0.3 1.1-0.2 1.4-0.8 1.4-1.6 1.4-3.8 2.5-1.4 1.4-4.3 5.1-1.2 2.5-1.1 3.6-0.1 3.1-5.1 0.8-1.3 0.4-2 0.3-1.5-0.2-1.6-1-1.1-1.3-1-1.3-1-1.1-10.8-7.4-1.7-0.7-1.6-0.1-2.4 0.5-1.9 0.9-1.6 1-0.9 1.6-0.3 1.3 0 1.4-0.2 1.1-0.5 1.2-0.9 0.9-1.2 0.5-1.4 0.1-1.3-0.1-3.6-1.4-4.4-2.1-8.6-1.6-0.6-9.9 0.6-4.2 0.4-1.5 0.3-2.2-0.1-0.8-0.5-0.3-0.8 0.2-1 0-1.2-0.3-1.1-1.4 0.2-1.5 0.7-1.9 1.2-2.1 0.8-2.6-0.1-1.6-0.4-1.3-1.2-2.6-0.7-1.2-1.9-2.5-0.8-1.4-0.2-1.1 0.4-0.8 0.7-0.5 0.9-0.2 0.7 0.1 0.7 0.1 0.7-0.1 0.4-0.5 0.3-1.2-0.2-1-0.4-0.8-0.5-0.6-0.3-0.7 0.2-0.7 0.7-0.6 1.2-0.6 1.2-0.8 1.1-1.2 0.7-2-0.1-1.6-0.5-1.5-1.2-2.1-2.5-3-7.6-6.3-1-1.2 5.7-2.1 0.8-0.9 0.8-1.3-0.3-1.5-0.7-1.4-4.2-4.3-2.3-3.7-1.2-3.9 7.2-1.2 1.2-0.5 1.4-0.6 3.5-1.6 0.3-0.3 0.3-0.3 0.2-0.2 2.6-2.5 0.6-0.6 0.5-0.8 0.2-0.3 0-0.1 8.6-14.3 0.3-0.2 3-2.1 0.8-0.5 2.3-0.3 44.9-4.9 1.8-0.7 3.2-1.4 1.3-0.5 5.1-0.6 1.6-0.7 1.3-0.6 0.7-0.2 0.9-0.1 4.6 0.4 6.1-1.8 7.1-0.1z" id="ROSV" name="Suceava">
  </path>
  <path d="M319.2 156.7l-8.8-1.7-1.7-0.9-1.3-1.1-0.2-1.1 0.3-0.9 0.8-0.8 3.5-2.4 0.9-0.8 0.8-1 0.5-1 0.4-1.2 0.4-1.5 0.5-1.6 0.8-1.3 5.6-7.2 1-0.6 0.8 0 0.8 0.5 1.6 2 1.1 1.1 4.4 2.9 1.5 0.6 1.6 0 1.8-1 1.5-1.7 1.7-2.5 2.1-2.6 1.6-3.6 0.7-1.8 1.2-2.7 0.3-1.7-0.2-1.9-0.7-1.2-1.1-1-1.5-0.9-6.5-1.8-1.1-0.7-0.6-1-0.2-1.2 0.5-2 1.1-1.2 1.5-0.7 6.9 0.1 3.7 1.1 1.5 0.8 1.6 0.4 1.7 0.1 2.2-0.4 2.4-1.2 13.6-10.4 0.8-1.6 0.1-1.6-1-1.8-1.2-1.2-3.3-2.1-1.3-1.1-1-1.1-4.5-6.5-1.5-5.3 0 0.1 0.2 0 0 0.2 0.2 0.1 0.1 0 0.1 0.1 0.1 0 0.1 0 0.1-0.1 0.1 0 0.1 0 0.1 0 0.1 0 0.1 0 0-0.1 0.1-0.1 0.1 0 0-0.1 0.1-0.1 0-0.1-0.1-0.1-0.1-0.1 0-0.1 0.1-0.1 0-0.1 0-0.1 0.1-0.2 0-0.2 0-0.1 0.1-0.1 0-0.1 0.1 0 0-0.1 0.1 0 0.1-0.1 0.1-0.1 0.1 0 0-0.1 0.1-0.1 0-0.1 0.1 0 0-0.1 0-0.1 0-0.1 0.1-0.1 0-0.1 0.1 0 0-0.1 0.1-0.1 0-0.2 0.1 0 0-0.1 0.1-0.1 0.1 0 0.1-0.1 0.1-0.1 0-0.1 0-0.4 0-0.3 0-0.1 0.4-0.1 3.4-0.6 0.1 0.1 0.3 0.2 0.2 0.1 0.1 0 0.1 0 0.1 0 0.2-0.1 0.1 0 0.8 0.3 6 0.7 0 0.1 0.1 0.2 0 0.2 0.1 0.2 0.1 0.1 0 0.1 0.2 0 0.1 0.1 0.1 0 0.1 0 0.2 0 0.1 0.1 0.2 0.1 0.1 0 0.1 0.1 0.2 0.1 0.1 0.1 0.2 0.1 0 0.1 0.1 0 0 0.1 0.1 0 0.1 0 0.1 0 0.2 0 0.1-0.1 0.1 0 0-0.1 0.1-0.1 0.2 0 0.6-0.1 0.5-0.1 2.2 0.3 6.7-0.3 1.6 0.8 3.4 3.2 0 0.1 0 0.2 0.1 0 0 0.1 0 0.1 0.1 0 0 0.1 0.1 0 0.1-0.1 0.1 0 0.1 0.1 0 0.1 0 0.1-0.1 0.1 0 0.1 0.1 0.1 0.1 0.2 0.3 0.2 0.1 0 0 0.1 0 0.1 0 0.1 0 0.1-0.1 0.3 0 0.1 0 0.1 0 0.1 0.1 0 0.1 0.1 0.1 0 0.1 0.2 0.2 0.1 0 0.1 0.1 0 0 0.1 0.1 0.1 0.1 0.3 0.1 0.1 0.1 0 0.1 0 0.1 0 0.1 0 0.1 0 0 0.1 0.1 0.1 0.1 0 0.2 0.1 0.1 0.1 0.1 0 0.1 0 0.1-0.1 0.1 0 0.1-0.1 0.1 0 0-0.1 0.1-0.1 0.6 0 3.8-1.6 0.1 0 0.1 0 0.1 0 0.1 0 0.2 0 0.1 0 0.1 0 0-0.1 0.1-0.1 0.1 0 0-0.1 0.1 0 0.1 0 0.1-0.1 0.1 0 0.1 0 0.1 0 0.1 0 0 0.1 0.1 0 0.1 0.1 0.1 0 0.1 0 0.1-0.1 0.1 0 0.1-0.1 0.1-0.1 0-0.1 0.1-0.1 0.1-0.1 0.1-0.1 0.1-0.1 0-0.2 3-1.2 0.2 0-0.1 0.1 0 0.1 0 0.1 0 0.1 0.1 0 0.1 0.1 0.1 0 0.1-0.1 0.1 0 0.1 0 0.1-0.1 0.1 0 0.2-0.1 0.1 0 0.1-0.1 0.2 0.1 0.1-0.1 0.2 0 1.2 0.1 1.6 1.1 0.4 0.1 0 0.2 0.1 0.1 0 0.1 0.1 0 0 0.1 0.1 0 0.1 0 0.1 0 0.1 0 0.1-0.1 0.2-0.1 3.4 0.9 1.5 0.7 0.1 0.1 0.2 0.1 0.1 0.1 0.1 0 0.1 0 0.2 0.3 0.1 0.2-0.1 0.2 0 0.1 0.1 0.1 0 0.1 0 0.1 0.1 0.2 0 0.1 0.1 0.1 0 0.1 0.2 0.2 0.1 0.1 0 0.1 0.1 0.1 0 0.1 0.1 0.2 0.1 0.2 0.1 0.1 0 0.1 0 0.1 0.1 0.1 0.2 0.2 0.1 0.1 0.2 0 0.1 0 0.1-0.1 0.2 0 0.3-0.1 0.1 0 0.2 0 0.2 0 0.1 0 0.1 0 0.1 0 0.1 0 0.1 0.1 0.2 0.1 0.1 0.1 0.1 0.1 0.1 0.1 0.1 0 0.1 0.1 0.1-0.1 0.1 0 0.1 0 0.1-0.1 0.4 0.1 0.2-0.1 5.7 2.2 1 0 0.1 0.1 0.1-0.1 0.2 0 0.1 0.1 0.1 0 0.2 0 0.2 0 0.5-0.3 0.2 0 0.2-0.1 0.1-0.1 0.3-0.2 0.1 0.1 0.1-0.2 0.2 0 1.2-0.7 0.1 0 0.2 0 0.1 0 0.1 0 0.1 0 0.1 0 0.1 0.1 0.4 0 0.1 0 0.1 0 0.1 0.1 0.3 0 0.1-0.1 0.1-0.1 0.5-0.2 0.1-0.1 0.5-0.2 0.1-0.1 0.2 0 0.2 0 0.1-0.1 0-0.1 0.2-0.2 0.1 0 0.1-0.4 0.4-0.1 0.2-0.1 0.1-0.1 0.1-0.1 1.8-0.1 0.4 0.4 0.4-0.1 0.3 0.3 0 0.1 0.3 0.2 0-0.1 0.5-0.1 0.1 0 0.1-0.1 0.1 0 0.3-0.3 0.3-0.1 0.1-0.1 0.2-0.1 0.1 0 0.2-0.2 0.3-0.2 0.3-0.1 0.5-0.2 0.4-0.1 0-0.1 0-0.1 0-0.4 0-0.1-0.1-0.1 0-0.1 0-0.2 0.1-0.3 0.1-0.3 0.1-0.3 0.2-0.1 0.1-0.2 0.1-0.3 0.1 0 2-1.1 1.8-0.1 5.5 1.4 5.5-0.1 1.8 0.4 0.8 0.5 3.7 2.2 2.5 2 1.5 1.8 0.6 2.3 0.1 1.9 0.4 1.8 1.7 1.9 3.3 2.1 7.7 3 1.4 1.3 1.2 1.7 3.3 5.8 2.2 3.5 1.8 1.2 3.1-0.5 1.3-0.3 1.2 3.9 2.3 3.7 4.2 4.3 0.7 1.4 0.3 1.5-0.8 1.3-0.8 0.9-5.7 2.1-8.3-0.1-3.2 1.2-4 3.7-1.5 1.1-2 0.6-18.1 0.6-18-4.3-1.7 0.5-6.7 3-1.3 1.1-0.8 1.3-1.8 4.4-1 1.2-1.9 1.2-8.2 1.7-1.4 0.6-0.4 0.8-0.2 0.8-0.2 2.2-0.3 1.4-0.7 1.4-5.8 8.6-3.7 3.6-16-1.2-2.7 2.3-2.5 1.3-1 0.3-1.4 0.1-1.2-0.3-1.3-0.8-0.8-0.9-0.9-0.8-1.1-0.7-1.9-0.9-0.9-1.1-0.5-1.1-0.3-1.1-1.2-0.8-2.3-0.4-14.8 0.7-2.2-0.4-12-4.1-3.8-2-2-0.7-2.5-0.4-10.1-0.1-4.8 1.8z" id="ROMM" name="Maramures">
  </path>
  <path d="M866.7 534.1l-5.5-1.2-5.5-2.9-6.3 1.9-7.6 0-6.9-2.9-4.9-5.9-5.5 0-2.1 5.9-4.1 1-4.2-3.9-4.1-3.9-4.9-2-8.7 0.8 1.5-2.6 0.6-2.8 0.4-3.3 0.9-2 2.6-3.5 0.8-1.4 0.1-0.5-0.1-0.7-0.1-6 0.3-0.7 1.4-1.3-0.1-3.1-1-4.9 0.3-1 0.9-1.4 0.1-0.9-0.1-0.8-0.2-0.4-0.2-0.3-0.1-0.4-0.6-4.4 0.3-0.6 1.3-0.6 1.4-1.4 1.1-1.8 0.4-1.8-0.8-1.8-1.7-1.8-1.9-1.4-1.8-0.6-1.5-1.2 0.5-2.6 1.4-2.9 1.2-1.8-0.3-0.9-0.5-0.7-0.5-0.6-0.6-0.6-3.4 1.4-3.3-1.4-5.2-4.6 1.2-2 0.5-0.8 0.5-2.1 0.1-0.3 0.8-1.5 0.2-0.5 0-0.5 0.3-4 0.2-1.2 0.4-1.2 1.3-2.2 0.7-0.5 1-0.2 4.2-1.4 1-0.2 0.9 0 1.6 0.5 2.8 1.4 1 0.2 0.6-0.2 0.3-0.4 0.4-0.9 0.1-0.7 0.4-1.1 1.3-1.6 0.1-0.3 2.2-0.2 2.8 1.6 1.8 2.4-0.1 0.2 0 0.4-0.1 0.3 0 0.2 0 0.3 0 0.3 0 0.4-0.1 0.4 0 0.4 0 0.2 0 0.4 0.1 0.3 0.2 0.3 0.1 0 2.3 6.2 1.9 3.4 2.2 1.4 1.7 0.5 3.3 1.9 5.8 1.5 0.4 0.2 0.4 0.2 0.6 0.3 0.9 0.4 0.8 0.4 0.1 0 1.5 0.7 0.7 0.4 0.6 0.1 0.5 0.3 0.6 0.4 0.7 0.4 0.2 0.1 0.3 0.3 0.4 0.3 0.3 0.3 0.4 0.1 0.6 0.1 0.6 0 1.2 0.1 9 2.1 0.4 0.2 0.3 0.2 0.3 0.1 0.6 0.3 0.5 0.1 0.6 0.1 0.4 0 0.5 0 0.4-0.2 0.5-0.3 0.4-0.2 0.2-0.1 0.4-0.2 0.4-0.2 0.3-0.1 0.2 0 0.3-0.1 0.5-0.1 0.5 0 0.5-0.1 0.4 0 0.3-0.1 0.3 0 0.4-0.1 0.3-0.1 0.2-0.2 0.3-0.2 0.1-0.2 0.1-0.2 0-0.2 0-0.2-0.1-0.1 0-0.2-0.2-0.3-0.3-0.3-0.5-0.4-0.5-0.3-0.5-0.3-0.3-0.3-0.2-0.2-0.2-0.3-0.1-0.1-0.2-1 0.2-1 2.4-1.3 0.1 0 0.2 0 0.2-0.2 0.1-0.1 0.2-0.3 0.3-0.2 0.1-0.2 0.2-0.3 0.1-0.1 0.1-0.2 0.1-0.2 0.1-0.4 0-0.2 0-0.2-0.1-0.1-0.1-0.2-0.2-0.2-0.2-0.1-0.2-0.1-0.3-0.2-0.4-0.1 0-0.1 0-0.4 2.5-0.6 1.5 0.5 2.6 1.8 2.1 0.4 1.3 0.8 1.5 1.7 2 1.2 0.1-0.1 0.1 0 0.3 0.1 0.2-0.1 0.2 0 0.3 0 0.3-0.2 0.2-0.2 0.2-0.2 0-0.1 0.3 0 0.4-1 0.3-2.6 0.6-1.2 0.7-0.5 0.8-0.3 2.1 0 1.3-0.7 5-4.1 3.9-1.1 1.7-0.8 1.3-1.4 0.8-0.4 2.4-0.1 0.4-0.4 0.4-1 0.8-1 1.5-1.3 0.5-0.3 0.2 0 0.1-0.1 0.4-0.2 0.2-0.2 0.6-0.3 1.6-0.1 1.6 0.3 2 0 0.8-0.3 0.9-0.6 0.7-0.7 0.6-0.7 0.9-0.7 1 0.3 1.1 0.5 0.9 0.3 7.4 0.8 13.4 4.8 4.4 4.1 0.4 0.2 0.1 0.1 0.5 0.7 0.3 0.3 0.1 0.2 0.2 0.2 0.2 0.2 0.5 0.4 0.2 0.3 0.4 0.4 0.4 0.3 0.1 0.1 0 0.1 0 0.1 0 0.1 0.1 0.1 0.1 0 0 0.1 0.2 0.1 0 0.2 0.1 0.1 0.1 0.2 0 0.3 0.1 0.3 0.1 0.3 0.1 0.4 0.1 0.5 0.2 0.5 0.3 0.4 0 0.1 0.5 5.3-0.4 1.4-0.3 0.3-0.1 0.2-0.1 0.2-0.1 0.4-0.1 0.2 0 0.1-0.1 0.4 0 0.1 0 0.2 0.1 0.1 0 0.1 0 0.2 0.1 0.2 0 0.1 0 0.1 0 0.1 0 0.1 0.1 0.2 0.2 0.5 0.1 0.3 0.1 0.3-0.3 1-0.5 1-0.8-0.2-2.5 0.1 0 0.9 1.4 2 1.1 2.4 1.6 1.9 3.1 0.3-2.2 2.3-1.1 3.8-0.8 12-0.5 2.3-1.3 3.8-0.3 2-0.1 2.2-0.3 1.9-0.6 1.3 0.6 3-2.4 3.7 1.2 2.5-0.7 1.7-0.7 0.5-0.9 0.2-1 0.5-1.4 2.1-0.7 0.6-1.9-1-1 0.2-1.1 0.5-0.9 0.3-18.7 2.9-11.9 0.8-3.5 1.2-9.6 6.6-2.9 2.8-2.4 3.5-0.7-1 0.1-2-1.3-2.5-0.6-2.1 2.1-0.9 2.4-0.4 3.5-1.9 3.8-0.9 2.2-1.5 1.7-2.4 0.6-3.1-0.6-1.7-1.2-1.8-2.8-3 0.5 2.1 0.1 1.1 0.1 1.5-1.6-0.3-1.3 1-1.3 0.4-1.1-2-0.5-2.5-0.2-8.2 1-2.6 4.5-1.6 1.1-1.8-0.8-1.4-4.2-2.8-1.3-0.5-2.9 0-3-1.1-1 0.2-0.4 0.7-0.3 1.3-0.5 1.2-1.1 0.5-2.1 0.2-1 0.4-3.5 3.4-1.1 1.5-0.5 2.9 0.1 0.7 0.9 0.7 0.2 0.9-0.2 0.8-0.4 0.4-0.4 0.2-0.2 0.4 0.3 1.3 0.6 1 0.8 0.7 2.2 1 4.6 4.8-1.2 1.4-0.5 0.3-0.9 0.2 0.9 0.7 0.4 0.2 0 1-1.2 0.8-0.1 1.3 0.8 1.3 1.2 1.2-0.9 0.7-1.2 0.3-4.3 0.1-1 0.4-5.8 3.7-1 0.9-0.9 1.8-0.2 1.8 0.7 0.7 1.4-1.1-0.4 1.6-1.8 0.6z" id="ROTL" name="Tulcea">
  </path>
  <path d="M291.5 276.1l0.1-5.2 0.4-3.5-0.4-1.2-0.9-0.9-1.1-0.7-0.9-0.8-0.9-1.7-1.6-6.5-1.3-2.9-1.2-2.1-3.9-3.5-1.1-1.6-0.3-1.3 0.2-1.1 0.5-1.1 0.9-0.9 1-0.8 3.6-1.6 0.8-0.7 0.7-0.9 0.5-1.2 0.5-1.5 0.5-1.6 0.4-2.6-0.5-1.5-1.2-1-4.9-1.9-0.9-0.7-0.1-0.9 0.3-1.3 2.1-4.1 0.7-2 1.2 0.5 11.4 0.1 1.7 0.4 1.1 0.5 1 0.9 0.7 1.3 1.6 4.2 1 1.8 1 1.2 1.2 0.5 3.6 0.3 0.9 0.4 0.7 0.5 0.4 0.8 0.5 0.7 0.8 0.5 0.9 0 2.1-0.4 1.2 0 1 0.2 1.1 0.4 1.4 0.3 1.7-0.2 1.8-0.7 1.4-0.3 1.1 0.1 2.2 0.9 1.2-0.1 0.9-0.5 0.3-1.2-0.2-1.2 0-1.1 0.3-1 1.3-2.6 0.6-1 1.2-0.2 0.8 0.6 0.6 1.1 0.6 2.1 0.6 0.7 0.8 0.2 2-0.7 1.1 0 0.7 0.3 0.7 0.6 0.6 0.9 0.7 0.6 0.9-0.1 0.8-0.6 0.9-2 0-1.3-0.4-1.2-1-1.1-0.9-1-0.3-1.3 0.4-0.9 1.4-0.7 1 0 1.6 0.6 0.6-0.2 0.3-1.8 0.5-0.9 1.1-0.6 1.1-0.2 2.2 0.1 1.2-0.1 1.5-0.4 0.9-0.9 0.4-1.3-0.2-1.1-0.8-3.1-0.5-1-1.3-1.6-0.3-0.9 0.1-1 0.5-0.7 2-0.6 0.6-0.4 0.2-0.7 0.6-1.6 0.7-1.3 0.2-1.3 0.1-1.1 0.4-0.9 4.4-1.8 2.2-1.4 1.2-0.4 1.1 0.1 1 0.4 0.9 0 0.8-0.6 0.7-1.8 0.8-1.7 1.5-1.7 3.4-1.8 3.1-1 5.7-0.7 1.5-0.6 0.8-1.2-0.1-2.8 0.4-2.6 0.5-1.7 0.6-1.3 0.2-1.1-0.1-0.9-1.4-2.3 2.7-2.3 16 1.2-0.9 4.1-1 1.6-1.3 1.5-3.1 2.6-0.6 1.4 0 1.7 0.4 1.5 1 7.8 0.4 1.7 0.7 1.4 1.1 1.2 1.2 0.7 5.4 1.5 1.5 0.9 2 1.9 1 0.7 2.2 1.1 1.4 1 1.4 2 0.4 1.7-0.1 1.8-0.5 1.8-0.3 1.8 0 2.1 0.7 0.9 1.7 1.2 0.2 0.9-0.2 1-0.1 1.1 0.1 1.6 0.7 1.2 1.1 0.9 3.4 1.9 1.8 2 0.5 1.9-0.2 2.2-0.5 2-0.7 5.8-0.5 1.7-2.1 4.4-3 0.3-0.8 0.9-1.1 1.4-3.6 6.9-0.4 1.6 0 1.2 0.6 1 0.8 1.1 0.7 1.4 0.1 2.4-0.7 1.5-0.9 0.9-3.4 0.6-1.3 0.6-1.6 1.6-0.9 2-1 2.9-0.2 1.6 0.2 1.3 0.5 1.1 0.3 1.2-0.1 1.5-0.6 0.8-2.1 1.4-1.3 1.2-1.9 3-0.4 1.7 0.5 1.6 2.2 2.2-0.7 1-1.6 0.8-1.3 0-6-1.9-1.9-0.3-3.5 0.9-1.5 0.2-4.3-0.2-1 0.3-1.8 0.9-1.2 0.2-4.5 0-1 0.4-0.6 0.6 0 0.9 0.2 0.9 0.2 0.9-0.2 0.8-0.6 0.4-1.4 0-1.6-0.5-2-1.4-0.7-1.4-0.1-1.2 0.5-1.1 0.8-1.1 0.7-1.4 0-1.1-0.6-0.8-1.1-0.4-3.1 0.3-1.8-0.1-2.1-0.4-4.7-1.9-5.4-4-1.4-0.7-1.6-0.4-9.6 1.8-3.5 2.7-1 0.9-0.9 0.6-1.2 0.1-1.6-0.2-4.4-1.4-1.8 0-0.9 0.4-4 2.4-0.7 0.7-1 1.6-0.8 0.4-0.6-0.2-0.7-0.9-0.2-0.9-0.2-1.7-0.4-0.8-0.8-0.7-1.2-0.9-0.9-0.8-0.5-0.9-0.9-1.9-1.3-0.9-2.2-0.7-13.5-0.3-3-2.6z" id="ROCJ" name="Cluj">
  </path>
  <path d="M498.6 131.4l1 1.2 7.6 6.3 2.5 3 1.2 2.1 0.5 1.5 0.1 1.6-0.7 2-1.1 1.2-1.2 0.8-1.2 0.6-0.7 0.6-0.2 0.7 0.3 0.7 0.5 0.6 0.4 0.8 0.2 1-0.3 1.2-0.4 0.5-0.7 0.1-0.7-0.1-0.7-0.1-0.9 0.2-0.7 0.5-0.4 0.8 0.2 1.1 0.8 1.4 1.9 2.5 0.7 1.2 1.2 2.6 0.4 1.3 0.1 1.6-0.8 2.6-1.2 2.1-0.7 1.9-0.2 1.5 1.1 1.4 1.2 0.3 1 0 0.8-0.2 0.5 0.3 0.1 0.8-0.3 2.2-0.4 1.5-0.6 4.2 0.6 9.9-7.4 2.9-6.4 1.3-2.5 0.9-3.2 2-4.8 4.3-0.8 1-1.3 3.5-0.5 1.1-2.4 3.6-0.8 1.8-0.5 1.9-0.7 4-0.7 1.1-1.2 0.6-1.7-0.3-1.6-0.7-2.8-1.8-1.2-0.5-1.1-0.2-1.1 0.2-1.8 0.8-2.3 1.8-2 2.7-0.9 1.7-0.9 2.6-0.6 1-1.9 2.3-0.5 1.2-0.3 1.5-0.2 1.5-0.3 1.4-0.5 1.1-1.4 0.9-1.8 0.7-3.4 0.4-4.4 1.8-1.5 0.3-2.1-0.1-6.4-1.6-7.9-3.9 2.1-4.4 0.5-1.7 0.7-5.8 0.5-2 0.2-2.2-0.5-1.9-1.8-2-3.4-1.9-1.1-0.9-0.7-1.2-0.1-1.6 0.1-1.1 0.2-1-0.2-0.9-1.7-1.2-0.7-0.9 0-2.1 0.3-1.8 0.5-1.8 0.1-1.8-0.4-1.7-1.4-2-1.4-1-2.2-1.1-1-0.7-2-1.9-1.5-0.9-5.4-1.5-1.2-0.7-1.1-1.2-0.7-1.4-0.4-1.7-1-7.8-0.4-1.5 0-1.7 0.6-1.4 3.1-2.6 1.3-1.5 1-1.6 0.9-4.1 3.7-3.6 5.8-8.6 0.7-1.4 0.3-1.4 0.2-2.2 0.2-0.8 0.4-0.8 1.4-0.6 8.2-1.7 1.9-1.2 1-1.2 1.8-4.4 0.8-1.3 1.3-1.1 6.7-3 1.7-0.5 18 4.3 18.1-0.6 2-0.6 1.5-1.1 4-3.7 3.2-1.2 8.3 0.1z" id="ROBN" name="Bistrita-Nasaud">
  </path>
  <path d="M270.2 168.5l4.1-3.4 12.6-6.1 2.7-0.7 1.9 0 10.5 3 1.4 0.8 2.3 2.3 1.4 0.8 3.9 1.1 1.1 0.5 1.6 1.9 1.2 0.8 0.5-0.3 0.4-0.6 0.5-1 0.6-0.8 3.7-3.2 0.5-0.9 0.2-1-0.2-1.1-0.8-1.9-1.1-2 4.8-1.8 10.1 0.1 2.5 0.4 2 0.7 3.8 2 12 4.1 2.2 0.4 14.8-0.7 2.3 0.4 1.2 0.8 0.3 1.1 0.5 1.1 0.9 1.1 1.9 0.9 1.1 0.7 0.9 0.8 0.8 0.9 1.3 0.8 1.2 0.3 1.4-0.1 1-0.3 2.5-1.3 1.4 2.3 0.1 0.9-0.2 1.1-0.6 1.3-0.5 1.7-0.4 2.6 0.1 2.8-0.8 1.2-1.5 0.6-5.7 0.7-3.1 1-3.4 1.8-1.5 1.7-0.8 1.7-0.7 1.8-0.8 0.6-0.9 0-1-0.4-1.1-0.1-1.2 0.4-2.2 1.4-4.4 1.8-0.4 0.9-0.1 1.1-0.2 1.3-0.7 1.3-0.6 1.6-0.2 0.7-0.6 0.4-2 0.6-0.5 0.7-0.1 1 0.3 0.9 1.3 1.6 0.5 1 0.8 3.1 0.2 1.1-0.4 1.3-0.9 0.9-1.5 0.4-1.2 0.1-2.2-0.1-1.1 0.2-1.1 0.6-0.5 0.9-0.3 1.8-0.6 0.2-1.6-0.6-1 0-1.4 0.7-0.4 0.9 0.3 1.3 0.9 1 1 1.1 0.4 1.2 0 1.3-0.9 2-0.8 0.6-0.9 0.1-0.7-0.6-0.6-0.9-0.7-0.6-0.7-0.3-1.1 0-2 0.7-0.8-0.2-0.6-0.7-0.6-2.1-0.6-1.1-0.8-0.6-1.2 0.2-0.6 1-1.3 2.6-0.3 1 0 1.1 0.2 1.2-0.3 1.2-0.9 0.5-1.2 0.1-2.2-0.9-1.1-0.1-1.4 0.3-1.8 0.7-1.7 0.2-1.4-0.3-1.1-0.4-1-0.2-1.2 0-2.1 0.4-0.9 0-0.8-0.5-0.5-0.7-0.4-0.8-0.7-0.5-0.9-0.4-3.6-0.3-1.2-0.5-1-1.2-1-1.8-1.6-4.2-0.7-1.3-1-0.9-1.1-0.5-1.7-0.4-11.4-0.1-1.2-0.5-1.6-2.7-3.7-3.8-6-3.5-1.1-1.2-0.6-1.1-0.4-1.1-2.8-5.5-4.2-6.6-1.2-2.9 0-1.9 0.8-0.8 0.8-1 2.5-3.6 0.5-1.1 0.3-1.1 0.1-1.2 0.2-1.2 0.5-1.1 1.1-1.8 0.5-1.2 1-3.9z" id="ROSJ" name="Salaj">
  </path>
  <path d="M552.1 557.6l-2.4-0.2-5.4-2.6-2.1-0.4-1.4 0.2-0.5 0.5 0 0.8 0.7 1.4 0 0.8-0.4 0.8-1.3 1.5-0.6 0.8-1.4 2.5-1.1 1.5-1.9 1.9-1.6 0.5-1.1 0.1-2.1-0.9 2.1-3.7 0.3-2.5-0.2-1-0.4-1.2-0.3-1.2-0.1-1.8 0.5-1.4 1.7-3.3 0.2-1.2-0.4-1-0.8-0.6-0.8-0.3-2.3-0.4-1-0.4-0.8-0.5-2.6-2.7-1.1-1.3-2.4-4.8-0.3-1.7 0.4-1.1 2.2-1.3 0.4-0.7-0.9-0.9-1-0.9-1.4-1.6-0.2-1.6 0.3-1.5 1.4-2.7 0.5-1.2 0.2-1.4 0.8-11.1-0.2-2.1-1.6-7.4-0.2-2.7 0.2-2.2 0.6-1.2 2.7-3.2 0.4-1.2 0-1.3-0.5-1.7-1.1-2.6-3-3.5-1.3-2.3-1.1-5.4 0.1-2.6 0.5-1.8 0.5-0.8 1-2.5 0.4-0.6 0.6-0.4 0.7 0.1 0.6 0.7 1.1 1.8 0.7 0.6 0.8 0.3 0.9-0.2 0.8-0.6 0.9-1.1 0.8-1.3 0.9-2.3 0.7-2.8 0.2-3.2 0.5-2.2 0.5-1.7 0.7-1.5 1.5-2.5 0.6-1.5 0.5-2.2 0-1.6-0.4-1.4-0.5-1.3-1.5-2.7 5.9-1.5 1.7-2.2 0.5-1.5 0.9-1.7 0.6-0.9 2-0.9 1.7 8.5 0.7 6.2 0.4 1.6 0.7 1.2 0.9 0.8 1 0.6 0.9 0.7 1.1 1.2 1.1 1.8 0.6 1.6 0.2 1.4 0 1.1-0.2 2.7 0.1 1.8 1.5 2.6 0.8 1.1 1.1 1 1.1 1.6 5.2 10.3 4.1 4.5 0.8 1.4 0.4 1.5 0.5 5.8 0.8 3.4 0.7 1.7 0.9 1.5 0.9 0.8 1 0.6 1.2 0.4 1 0 1.1-0.2 0.8-0.4 0.8-0.2 0.7 0.4 1 1.1 1.3 2.2 0.5 1.9 0 2-0.3 1.9-0.2 1.9 0.4 2.5 0.7 1.3 1 0.8 4.6 0.6 1.5 0.6 1.6 0.9 6.7 8.2 1.1 1 1.9 1 1.2 0.3-2.4 2.9-1.2 0.9-0.6 1.3-0.4 1.4-0.6 0.9-2 1.5-0.4 0.9 0 0.8 0.4 0.8 3.2 1.2 0.4 1.1-0.4 1.1-0.9 1.3-4.6 5.4-2.2 1.8-29.6 1.8-2.8 0.8-1.8 0.9-1.1 1.2-2.6 3.4z" id="RODB" name="Dâmbovita">
  </path>
  <path d="M640.6 555.3l-1.7 1.1-0.3 0.8-0.1 1.8 0.9 1 1.3 0.8 1.8 0.6 0.6 0.5 0.1 0.8-0.4 1.1-0.7 1.1-1.1 1.2-5.8 2.7-1.7 1.2-1.7 1.7-2.5 3.3-2.5 3.9-1 3.5-5.2 5.5-2.3 1.9-1.3 0.7-1.2 0.3-1.3 0.1-1.4-0.2-1.6-0.5-1.5-0.6-1.6-1.1-7.3-6.5-1.1-0.6-1.1-0.1-1 0.1-0.9-0.2-0.8-0.8-0.7-1.6-1.3-1-1.9-0.6-2.5-1.2-1-1.7-0.6-2.5 0.9-6.1 0.9-2.6 1.5-3.1 0.5-1.5 0.3-2.1 0.1-1.7-2.4-5.2 2.2-1.8 4.6-5.4 0.9-1.3 0.4-1.1-0.4-1.1-3.2-1.2-0.4-0.8 0-0.8 0.4-0.9 2-1.5 0.6-0.9 0.4-1.4 0.6-1.3 1.2-0.9 2.4-2.9 0.5-0.5 0.8-1.5 5.8-0.1 5.8-1.9 2.3 0 2.5 1.1 1.4-0.2 4 0.2 1.8 0.6 3.9 0.5 0.9 0.4 0.6 0.7 0 2.2 0.2 1.1 0.7 1.4 0.3 1 0 1.1 0.3 1.2 0.9 1.2 5.9 3.3 0.9 1 0.2 0.9-0.4 1.1-0.6 0.8-3.8 2.6-0.8 0.9-0.6 1-0.5 1.1-0.3 1.1-0.2 1.2 0.3 1.1 0.8 1.1 3.1 1.6 2.2 1.8z m-22.9 16.2l1.5-4.2-4.2-3.7 2.3-6.8-7.5-1.8-0.9-9.1-6.4 2.4-4.6 8.1 5 2.2 0 4.2-6.3 0.6 0 4.3 6.3 6.8 5.3 1.2 4.6 6.1 2.6-2.3-3-7.4 0.7-2 4.6 1.4z" id="ROIF" name="Ilfov">
  </path>
  <path d="M529.5 566.8l-3-1.5-1.6-0.4-1.7-0.2-2.2 0-4.3 0.8-2 1.2-2.2 2.1-1.3 0.6-2.3 0.6-3.1-0.5-0.9 0.1-1 0.8-1.2 1.5-0.7 0.6-1 0.6-1.5 0.3-1.7 0.1-5.2-1.3-4.1 1-2.1-1.4-4.6-0.4-0.9-0.6-0.7-1.2-0.5-2-0.4-5.9-1.2-4.5 0-1.2 0.2-1.1 0.5-1.8 0-0.9-0.9-6.1-0.7-2.2-0.3-1.3-0.1-1.6-0.5-3-0.8-2.1-2.3-3.9-0.3-1.3 0.3-0.8 0.6-0.7 0.8-0.5 1.7-0.8 0.5-0.3 0.1-0.6-0.5-0.7-0.8-0.5-1.6-0.2-1.5 0.4-1.6 0-1.5-0.5-1.9-1.8-1.1-1.6-4.3-8.9-0.7-1.8-0.1-1.6 0.2-1.3 0-1.2-0.2-1.1-0.5-0.7-0.9-0.1-0.8 0.5-1 1.5-1 2.4-0.4 0.9-0.6 0.8-3.9 3.3-0.9 0.4-0.8-0.3-0.7-0.6-1.1-3.2 2.4-1.9 3.8-4.5 0.6-1.2 0.4-1.1-0.2-1.2-0.6-1.6-0.8-1.2-0.7-1.1 0-1.2 0.7-2.8 1-8.3 3-12.8-0.2-3.2-0.6-2-0.7-1.6-0.6-1-1.5-1.7-0.5-1.3-0.1-1.8 0.4-2.8 0.3-3.4-0.9-3.3-0.2-1.5 0.2-1.2 0.6-1.1 0.8-0.9 0.7-1.1 0.3-1.2-0.2-1.7-2-8.6 0-1.5 0.2-1.5 2.9-5.4 1.3-6.1-1.2-4.3 17.5-5.1 6-0.6 1.5 0.4 1.3 0.7 1.5 1.7 0.7 1.3 0.7 1 0.8 0.4 1.1-0.4 1.7-1.1 1.2-0.4 1.1-0.1 2.9 0.2 5.9-0.5 10.7 1.4 2.3 1.3 3.6 3.3 1.7 1 1.5 0.6 1.6 1.1 1.4 1.8 5.3 11.9 3.2 3.8 1.5 2.7 0.5 1.3 0.4 1.4 0 1.6-0.5 2.2-0.6 1.5-1.5 2.5-0.7 1.5-0.5 1.7-0.5 2.2-0.2 3.2-0.7 2.8-0.9 2.3-0.8 1.3-0.9 1.1-0.8 0.6-0.9 0.2-0.8-0.3-0.7-0.6-1.1-1.8-0.6-0.7-0.7-0.1-0.6 0.4-0.4 0.6-1 2.5-0.5 0.8-0.5 1.8-0.1 2.6 1.1 5.4 1.3 2.3 3 3.5 1.1 2.6 0.5 1.7 0 1.3-0.4 1.2-2.7 3.2-0.6 1.2-0.2 2.2 0.2 2.7 1.6 7.4 0.2 2.1-0.8 11.1-0.2 1.4-0.5 1.2-1.4 2.7-0.3 1.5 0.2 1.6 1.4 1.6 1 0.9 0.9 0.9-0.4 0.7-2.2 1.3-0.4 1.1 0.3 1.7 2.4 4.8 1.1 1.3 2.6 2.7 0.8 0.5 1 0.4 2.3 0.4 0.8 0.3 0.8 0.6 0.4 1-0.2 1.2-1.7 3.3-0.5 1.4 0.1 1.8 0.3 1.2 0.4 1.2 0.2 1-0.3 2.5-2.1 3.7z" id="ROAG" name="Arges">
  </path>
  <path d="M357.6 551.6l-1.6-3.3-1-1.4-5.4-5.3-6.2-4.3-2.2-1.1-16.7-4.8-1.9-0.9-2.1-1.5-7.4-7-8.6-9.8-0.6-1.5-0.3-1.5-0.4-2.9-0.2-1.3-0.7-2.3-0.2-1.3 0-1.2 0.5-2.3 0.4-1.1 0.1-1.2-0.5-1.2-1.1-1.2-2.5-1.5-1.6-1.5-1.1-1.3-0.7-1.2-0.9-0.8-1.2-0.6-1.8-0.3-4.6 0.5-1.5-0.3-1.7-0.9-4.1-5.4-3.8-1.8 0.5-2.8-0.5-1.1-0.6-0.8-0.9-0.3-3.7-0.2-1.2-0.5-0.8-0.6-0.3-1.1 0.1-1.4 0.8-1.8 2.8-3.7 6.5-5.8 20.4-7.5 1.1-0.2 1.2 0.7 0.7 0.9 0.9 0.7 1.1 0.4 4.1 0.3 0.9 0.3 0.8 0.7 0.8 0.7 0.9 0.4 1.5-0.1 6.1-2.7 2.5-0.1 1.4 0.2 2.9 1.3 1.2 0.1 1.5-0.4 5.3-3.2 1.5-0.6 4.2-0.8 3.4-1.7 1.8-0.5 2.4 0 1.5 0.4 1.3 0.8 1.8 1.2 0.8 0.1 1-0.3 1.7-1.4 5.5-3.1 5.9-2 2.9 0.9 4.7 0.1 1.1 0.3 1.8 1 1.5 0.3 1.7 0.1 5.9-0.7 0.8 0.1 0.8 0.3 1.7 1.3 0.7 1.1 0.4 1.5-1.2 5.3-0.2 2.7 0.8 3.7 1 2.5 0.4 1.9-0.1 1.6-1.6 4.6-0.4 2 0.3 4.6 0 1.8-2.7 10.7-1.1 3-0.4 1.9-0.2 2.5 1.4 15.6-0.4 7.2-1.3 7.8-1-1-1.2-0.5-0.7-0.1-0.5 0.2-0.5 0.5-0.3 1.2 0 0.9 0.1 1 0.3 1.1 0.1 1.3-0.1 1.5-0.4 2.1 0 0.8 0.2 0.8 0.2 0.8 0.1 1-0.1 1-0.4 0.8-0.9 0.5-4.5 0.2-9.1 2.9-8.8 6.3z" id="ROGJ" name="Gorj">
  </path>
  <path d="M248.5 360.5l4.5-5.8 1-2.4 0.7-2.3 0.1-1.6-0.3-1.5-1-3.2 0.2-1.4 0.6-1.7 1.4-2.9 0.4-2.1 0.2-1.9-0.2-4.6 0.4-1.5 0.9-1.4 2.2-2 1.3-0.8 1.7-0.2 5.4 1.3 1.8 0.1 2.3-0.3 1.8-1 2-1.8 2.2-3.7 0.9-2.2 1.7-3.7 6.3-4.7 4.6 3 0.9 0.2 8.8-0.9 1 0.3 0.9 1.2 1 2 1.5 4 1.6 6.1 0.7 0.8 1.1 0.4 4.4 0.7 1.1 0.5 1.1 0.8 1.2 1.7 1.2 2.2 1.5 4.1 0.1 1.4-0.4 0.5-0.7-0.3-0.7-0.1-0.6 0.1-0.4 0.4-0.2 0.6 0.3 1 0.7 1.2 9.2 12.2 2.3 1.1 1.9 0.3 1.1 0.9 3.7 9.7 1.6 2.6 2.5 3.1 0.9 1.6 2.4 10.6 2.2 5.7 0.7 3 0.4 2-0.2 2.6 0.1 1.1 0.5 1.1 2.1 2.4 0.3 1.3-0.2 0.9-0.4 1-0.3 1.1 0.1 1.2 0.4 1.4 1 2.4 1.2 1.7 2.2 1.8 3.8 1.8 1.6 1.2 2.1 2.4 4.8 4.6 0.6 0.8 0.3 1.4 0.2 1-0.1 4.6-0.4 2 0.3 1.3 1.3 4.1 0.3 1.5-1.4 4-5.9 2-5.5 3.1-1.7 1.4-1 0.3-0.8-0.1-1.8-1.2-1.3-0.8-1.5-0.4-2.4 0-1.8 0.5-3.4 1.7-4.2 0.8-1.5 0.6-5.3 3.2-1.5 0.4-1.2-0.1-2.9-1.3-1.4-0.2-2.5 0.1-6.1 2.7-1.5 0.1-0.9-0.4-0.8-0.7-0.8-0.7-0.9-0.3-4.1-0.3-1.1-0.4-0.9-0.7-0.7-0.9-1.2-0.7-1.1 0.2-20.4 7.5 0.1-2.7 0.2-1 0.5-1.1 2-3.2 0.6-1.1 0.2-1 0-1.1-0.2-1.3-0.6-1.4-1.3-1.9-0.7-1.3-0.2-1.2 0.3-0.9 1.2-1.8 0.5-1.4 0.2-1.2-0.4-2.3 0-1.5-0.1-1.5-0.3-1.6-1.1-4-0.9-2-1.5-1.8-3.2-2.5-1.8-1.2-1.2-1-0.6-1.1-0.6-0.7-1-0.2-0.9 0.2-0.8 0-0.6-0.4-0.1-1.1 0.2-1-0.1-0.9-0.5-0.7-1.4-0.4-1.1-0.2-1.4-0.5-1.3-0.9-2.8-3.9-0.8-3.1 0.8-0.4 0.3-0.4 0.4-0.7 0.3-1 0.4-2.6 0.4-1.3 0.8-1.4 1.1-1.2 3.9-3.5 0.8-1.1 0.2-1-0.2-0.9-1.1-0.6-0.7-0.1-0.7 0.2-1.2 0.7-0.8-0.5-0.8-1.2-1.8-4.5-0.9-1.7-0.8-0.8-2.7-2.2-0.9-1.4-0.6-2-0.4-1.7-0.3-2.6-0.9-2.2-3.3-3.5z" id="ROHD" name="Hunedoara">
  </path>
  <path d="M402.6 554.4l-2.7-2.8-1.6-2.4-1.1-2-2-6.7-0.8-1.2-1-0.8-3.2-2.1-1.5-0.6-1.6-1-0.8-1-0.4-1.2-0.1-1.1-0.7-3.2 1.3-7.8 0.4-7.2-1.4-15.6 0.2-2.5 0.4-1.9 1.1-3 2.7-10.7 0-1.8-0.3-4.6 0.4-2 1.6-4.6 0.1-1.6-0.4-1.9-1-2.5-0.8-3.7 0.2-2.7 1.2-5.3-0.4-1.5-0.7-1.1-1.7-1.3-0.8-0.3-0.8-0.1-5.9 0.7-1.7-0.1-1.5-0.3-1.8-1-1.1-0.3-4.7-0.1-2.9-0.9 1.4-4-0.3-1.5-1.3-4.1-0.3-1.3 0.4-2 4-0.7 2 0.2 1.1-0.4 2-1.3 2.9-2.3 1.3-0.5 1.7 0 1.2-0.4 0.8-0.7 0.9-0.9 0.8-0.9 1.4-0.5 16.1-0.5 3.6 0.4 3.4 1.5 1.5 0.3 1.8-0.1 9.7-5.5 1.3-0.5 13.4-3.1 19.7 0.2 1.2 4.3-1.3 6.1-2.9 5.4-0.2 1.5 0 1.5 2 8.6 0.2 1.7-0.3 1.2-0.7 1.1-0.8 0.9-0.6 1.1-0.2 1.2 0.2 1.5 0.9 3.3-0.3 3.4-0.4 2.8 0.1 1.8 0.5 1.3 1.5 1.7 0.6 1 0.7 1.6 0.6 2 0.2 3.2-3 12.8-1 8.3-0.7 2.8 0 1.2 0.7 1.1 0.8 1.2 0.6 1.6 0.2 1.2-0.4 1.1-0.6 1.2-3.8 4.5-2.4 1.9 0.2-6.3-0.5-1-0.7-1.1-1-0.3-0.9 0.1-1 0.5-0.8 0.9-0.7 1-2.7 4.8-0.5 1.5-0.3 1.6-0.2 1.9-0.7 3-0.5 1.5-0.9 1.7-1.5 2.4-1.8 1.9 0 1.1 0.4 2.9 1.3 5.9-0.4 2.3 1.1 1.7 1.1 2.5 0.7 3.1 0.3 2.5-0.8 0.6-0.7 0.7-0.9-0.5-0.7-0.9-0.5-1-0.2-0.8 0-0.9 0.1-1.4-0.2-0.5-0.5-0.3-0.9 0-1.2 0.9-0.5 1.2-0.6 2.8-0.8 1-2.8 1.6-1 0.3-1-0.1-2.2-0.6-1.2 0-1.1 0.1-1.2 0.7-0.9 1.1-3.1 4.4-1.1 0.5-0.8 0-0.7-0.7-0.9-1.6-0.8-0.9-0.9-0.7-1-0.5-1-0.2-1.3 0.3-1 0.3-3.7 2.3z" id="ROVL" name="Vâlcea">
  </path>
  <path d="M601.7 526.2l-1.2-0.3-1.9-1-1.1-1-6.7-8.2-1.6-0.9-1.5-0.6-4.6-0.6-1-0.8-0.7-1.3-0.4-2.5 0.2-1.9 0.3-1.9 0-2-0.5-1.9-1.3-2.2-1-1.1-0.7-0.4-0.8 0.2-0.8 0.4-1.1 0.2-1 0-1.2-0.4-1-0.6-0.9-0.8-0.9-1.5-0.7-1.7-0.8-3.4-0.5-5.8-0.4-1.5-0.8-1.4-4.1-4.5-5.2-10.3-1.1-1.6-1.1-1-0.8-1.1-1.5-2.6-0.1-1.8 0.2-2.7 0-1.1-0.2-1.4-0.6-1.6-1.1-1.8-1.1-1.2-0.9-0.7-1-0.6-0.9-0.8-0.7-1.2-0.4-1.6-0.7-6.2-1.7-8.5 1.5-1.1 1.3-0.5 16.2-2.9 2.2-0.1 4.1 0.9 4.1 1.6 1.4 0.2 2.7-0.9 1.2-0.1 1.1 0.7 0.7 0.9 1.3 2.2 0.8 0.8 1.4 0.2 1.6-0.5 1.9-1.6 0.9-1.6 0.4-1.8 0.3-1.5 0.4-1.5 0.7-1.2 1.3-0.5 2.1 0.3 5.1 3 4.5 0.9 5.8 6.9 3.9 2.9 1.4 1.3 1.2 2 3.3 7.2 0.5 2.1-0.1 1.3-0.6 0.9-0.2 1.1 0.5 1.5 2.7 2.8 1 1.4 0.3 1.6 0.1 1.1 0.3 1 0.7 1 1.3 0.8 1.4 0.2 4.2-0.3 1.1 0.4 0.9 0.8 0.5 1.7 1 0.9 0.8 0.2 0.7-0.5 1.6-1.5 0.8-0.3 0.5 0.3 0.1 1-0.2 1.1-0.2 1.3 0.3 1.6 1.4 1.5 2.2 1.8 0.9 1.3 0.6 1.4 0.4 2.1 0.3 1.9 0.2 5.2 0.4 2 0.7 1.4 1.5 1 2.7 0.8 0.9 0.3 2.1 2.2 0.8 1 0.5 1.2-0.2 1.8-0.8 1.1-1.7 1.8-0.6 1-0.1 1.3 0.4 1.3 3.6 3.7 1.9 3.2-2.5 3.1-1.2 2.2-0.7 0.7-1 0.8-1.3 0.7-1.4 0.4-5.2-0.5-1.3 0.3-1.3 1.1-0.7 1-0.9 0.9-1.1 0.4-2.2-0.1-2.2-1.3-1.1-0.3-1.4 0.1-3.2 1.6-3.5 3.2-4-0.2-1.4 0.2-2.5-1.1-2.3 0-5.8 1.9-5.8 0.1-0.8 1.5-0.5 0.5z" id="ROPH" name="Prahova">
  </path>
  <path d="M645.5 350.6l-6.1 9.8-1.6 4.6-0.1 2-1.4 7-0.8 6.8 0.8 2.9 0.5 1.3 0.3 1.5-0.2 1.6-1.8 3.8-0.4 1.7-0.1 1.6-0.4 1.8-0.9 1.7-1.5 2.4-0.6 2-0.7 3.1-0.9 1.3-1.7 0.9-1.6-0.1-1.1-0.5-1.8-1.7-1-0.7-1-0.2-0.9 0.4-0.9 1.4-0.4 1.4-0.3 2.6-0.7 0.8-1.1 0.4-4.8 0.2-3.7 1.2-2.1-2.2-3-4.6-1.8-1.6-1.8-1.1-1.9-0.8-1-0.8-1.5-3-1.5-2.4-2.8-2.9-2.4-1.7-9-3.4-1.6-0.9-1.5-2.2-0.6 0.8-1.5 0.3-1.4 0.6-1.3 0.1-1.4-1-0.8 0.7-0.7 0.3-1.7 0-0.2-4.6-3-3.1-6.8-4.6-0.9-1.8-0.4-2.1-0.1-9 0.2-3.1 0.6-1.9 0-1-0.3-1.4 1.3-4.6-0.4-2.4-1.2-1-2-0.5-1.9 0.1-0.8 0.8-1.3-1.7-3.1-2.4-0.9-1.5-0.2-1.2 0.6-1.9 2.3-4.8 0.5-0.5 1-0.9-0.2-1.2 0.5-0.9 3.4-3.7 2.1-1.5 1.4-1.6 3.4-5.1 1.6-1.4 3.2-2.1 1.1-1.2 1.2-0.8 1.2-0.3 1.5 0.8 2.5 2.3 1.1 1.1 0.7 1.2 0.2 1.3 0.2 1.3 0.3 1.4 2.4 4.7 0.5 1.2 0.7 1 3.8 3.1 0.9 1.1 0.8 1.4 1.7 1.4 2.6 1.3 9 0.7 25-5.5 4-1.3 3-2.7 0.9-0.2 0.8 0.4 1.2 1.7 0.8 0.7 3.6 2.2 0.9 1.2 0.5 1.1-0.2 1-1.4 1.5-0.2 0.9 0.6 1.3 1.8 0.9 1 0.9 0.9 0.9 0.5 1.3 0.9 2.9 0.6 1.3 0.6 1.1 1.6 0.8z" id="ROCV" name="Covasna">
  </path>
  <path d="M745 331l1.3 6.4-5.5 0.4-0.9 0.6-1.2 1.1-0.9 1.2-1.6 1.5-1.5 0.5-3.4 0.2-2.7 0.6-1.8 1-2.1 1.9-2.4 2.9-1.4 1.5-0.8 1-0.6 1.4-0.3 1.6-0.1 3 0.8 3.7 10.3 25.9 0.6 2 0.6 1.7 0.6 1.3 2.5 3.6 0.9 0.9 2.6 1.3 1 0.7 0.5 0.8 0.5 0.9 0.6 1.1 2.1 2 1 1.6 0.8 1.9 0.7 3.1 0.1 1.5 0 1.3 0.2 1.1 1.8 4.8 0.9 1.6 2.6 2.8-5.7 2.1-1.9 1.2-1.7 1.6-2.5 3.2-2.4 3.7-0.9 2.8-4.4 0.2-2.1-0.3-4.6-1.3-0.9-0.4-0.7-1.1-0.2-1.1-0.2-1-0.4-1-0.6-0.6-1.2-0.3-1.7 0.1-0.8-0.3-1-0.9-1-0.6-1.6-0.3-0.9 0.3-0.9 0.7-0.8 1-0.8 0.7-0.9 0.4-0.8-0.2-0.4-1.2 0.3-2.5-0.2-0.9-0.6-0.5-1.3 0-1.2 0.4-2.3 1.3-1.1 0.5-1.2 0.1-1.3-0.5-1.7-1.1-2.6-2.7-0.6-1.7-0.1-1.7 0.1-1.1-0.6-1.3-1.7-1.2-2.8-1.3-2.3-0.4-1.5 0-0.7 0.5-0.2 0.5 0.1 0.5 0.2 0.3 0.1 0.4-0.1 0.5-0.2 0.5-0.4 0.5-0.6 0.1-1-0.2-1.4-0.5-1.9-0.3-1.2-0.5-4.1-2.3-3.2-2.5-2.2-2.7-6.1-5.2-2.1-0.9-1.3 0-1 0.4-1.1 0.3-1.4 0.1-2.7-0.4-1.7-1.3-1.8-2.2-6.4-11.1-4-5.8-4.2-4.1 0.8-6.8 1.4-7 0.1-2 1.6-4.6 6.1-9.8 11.1 1.7 2.9-1.5 0.2-1.3 0.1-2.6 0.3-1.3 0.6-1.2 1.1-1 1.6-0.5 9.2-0.6 2.9 0.6 4.2 0.1 2.4 0.7 1.6 0.2 1.9-0.4 1.6-0.1 1.5 0.2 3.7 1.6 0.9-0.2 0.4-0.6 0.2-0.9 0.5-1.1 0.8-0.9 1.6-0.8 1.5-0.2 1.3 0.3 5 1.8 1.2-0.3 0.9-0.6 1.1-2.1 0.9-1.1 2.6-1.7 1.1-1 1.6-2.3 1.1-1.2 2.3-1.3 7.1-1.5 2.5-0.1 1.9 0.3 4.1 2.6 1.8 0.2 1-0.3 0.8-0.7 0.5-0.9 0.7-0.8 0.9-0.2 3.4 1 2.9 0.4z" id="ROVN" name="Vrancea">
  </path>
  <path d="M657 509l-1.9-3.2-3.6-3.7-0.4-1.3 0.1-1.3 0.6-1 1.7-1.8 0.8-1.1 0.2-1.8-0.5-1.2-0.8-1-2.1-2.2-0.9-0.3-2.7-0.8-1.5-1-0.7-1.4-0.4-2-0.2-5.2-0.3-1.9-0.4-2.1-0.6-1.4-0.9-1.3-2.2-1.8-1.4-1.5-0.3-1.6 0.2-1.3 0.2-1.1-0.1-1-0.5-0.3-0.8 0.3-1.6 1.5-0.7 0.5-0.8-0.2-1-0.9-0.5-1.7-0.9-0.8-1.1-0.4-4.2 0.3-1.4-0.2-1.3-0.8-0.7-1-0.3-1-0.1-1.1-0.3-1.6-1-1.4-2.7-2.8-0.5-1.5 0.2-1.1 0.6-0.9 0.1-1.3-0.5-2.1-3.3-7.2-1.2-2-1.4-1.3-3.9-2.9-5.8-6.9 5.3-11.3 3.7-1.2 4.8-0.2 1.1-0.4 0.7-0.8 0.3-2.6 0.4-1.4 0.9-1.4 0.9-0.4 1 0.2 1 0.7 1.8 1.7 1.1 0.5 1.6 0.1 1.7-0.9 0.9-1.3 0.7-3.1 0.6-2 1.5-2.4 0.9-1.7 0.4-1.8 0.1-1.6 0.4-1.7 1.8-3.8 0.2-1.6-0.3-1.5-0.5-1.3-0.8-2.9 4.2 4.1 4 5.8 6.4 11.1 1.8 2.2 1.7 1.3 2.7 0.4 1.4-0.1 1.1-0.3 1-0.4 1.3 0 2.1 0.9 6.1 5.2 2.2 2.7 3.2 2.5 4.1 2.3 1.2 0.5 1.9 0.3 1.4 0.5 1 0.2 0.6-0.1 0.4-0.5 0.2-0.5 0.1-0.5-0.1-0.4-0.2-0.3-0.1-0.5 0.2-0.5 0.7-0.5 1.5 0 2.3 0.4 2.8 1.3 1.7 1.2 0.6 1.3-0.1 1.1 0.1 1.7 0.6 1.7 2.6 2.7 1.7 1.1 1.3 0.5 1.2-0.1 1.1-0.5 2.3-1.3 1.2-0.4 1.3 0 0.6 0.5 0.2 0.9-0.3 2.5 0.4 1.2 0.8 0.2 0.9-0.4 0.8-0.7 0.8-1 0.9-0.7 0.9-0.3 1.6 0.3 1 0.6 1 0.9 0.8 0.3 1.7-0.1 1.2 0.3 0.6 0.6 0.4 1 0.2 1 0.2 1.1 0.7 1.1 0.9 0.4 4.6 1.3 2.1 0.3 4.4-0.2-0.3 2.6-1.8 3.1-0.6 1.9-0.7 3.1-0.9 1.1-1.2 0.2-1.5-0.2-1.4 0-1.9 0.8-0.6 1.1 0 1.4 0.5 3.1-0.4 2-0.6 0.6-0.7-0.2-0.7-0.5-1-0.3-1.3 0-3.8 1.2-1.2 0-4.5-0.7-7.7 2.7-1.4 1.2-0.8 1.1-0.1 1 0.1 1 1.4 3.7 0.6 0.6 0.9 0.2 1.2-0.2 0.8-0.9 0.3-0.9 0.1-0.8 0-1 0.6-0.6 0.8-0.3 0.9 0 0.9 0.5 0.6 0.8 0.4 1 0.1 1.1-0.1 2.7 0.1 1.5 0.5 0.9 0.9 0.5 1.2 0.4 0.8 0.6 0.6 1.1 0.1 1.3-0.1 2.7 0 1.2 0.4 0.9 0.7 0.5 1.3 0.2 2.3-0.1 0.8 0.4 0.5 0.8 0.2 1.3-0.1 2.2-0.4 2.9-1.1 5-0.7 2.3-0.8 1.3-3.5 0.9-1 0.6-1.2 1.2-0.4 1.2 0.3 1.3 0.9 0.8 1 1.2 0.6 1.7-0.6 6.3 0.3 0.9-2.1 1.1-0.4 0.6 0 0.8 0.6 0.7 1.1 0.7 0.7 0.6 0.4 0.8-0.4 0.5-1 0.5-2.2 0.6-2.7 1.1-0.6 0.1-0.7-0.1-0.4-0.3-0.1-0.7 0-0.7 0.2-0.8 0-0.9-0.1-1-0.6-0.9-0.9-0.9-1.3-0.9-1.5-0.7-2.2-0.7-1.5 0.2-1.2 0.7-1 1.1-1.3 0.8-1.4 0-1.3-0.6-2.9-1.8-2.2-0.8-1.9-0.1-3.4 0.7-1.4 0-1.1-0.3-1-0.5-5.8-1-6.3 0.5-2.3-0.1-1.7-0.5-3.3-2.9-2.1-1.1z" id="ROBZ" name="Buzau">
  </path>
  <path d="M544.1 429l-2 0.9-0.6 0.9-0.9 1.7-0.5 1.5-1.7 2.2-5.9 1.5-3.2-3.8-5.3-11.9-1.4-1.8-1.6-1.1-1.5-0.6-1.7-1-3.6-3.3-2.3-1.3-10.7-1.4-5.9 0.5-2.9-0.2-1.1 0.1-1.2 0.4-1.7 1.1-1.1 0.4-0.8-0.4-0.7-1-0.7-1.3-1.5-1.7-1.3-0.7-1.5-0.4-6 0.6-0.2-2.8-0.3-2.1-0.4-4-0.8-4.5-0.4-1.7-0.6-1.6-3-6.4 0-1.4 0.4-1.2 1.5-1.1 3.4-1.5 1.8-0.5 1.7-0.7 1.3-1 0.5-1.5-0.3-0.9-0.7-0.5-0.6-0.3-0.6-0.7-0.2-0.9 0-1.2 0.1-1.5-0.4-1-1.3-1.6-0.3-0.8 0-1.1 0.6-0.9 4.3-2.3 1.5-1.5 1.6-0.9 1.1-0.2 0.8 0.2 0.8 0.5 0.6 0 0.8-0.4 0.3-1.3-0.1-1.1-0.6-1.8 0.2-0.9 0.6-0.6 5.4-2.9 5.7-4.8 2-2.8-0.6-2.8 0.4-1.2 0.6-1.5 0.9-1.1 2.2-1.7 1.3-0.8 1.4-0.4 8.8-0.4 4.8-1.1 5.2-0.9 5.3-2.4 1.6 0 1.6 0.3 2 1.1 1.6 1.5 1.5 1.1 4.2 1.5 2.7 3-0.6 1.9 0.2 1.2 0.9 1.5 3.1 2.4 1.3 1.7 0.8-0.8 1.9-0.1 2 0.5 1.2 1 0.4 2.4-1.3 4.6 0.3 1.4 0 1-0.6 1.9-0.2 3.1 0.1 9 0.4 2.1 0.9 1.8 6.8 4.6 3 3.1 0.2 4.6 1.7 0 0.7-0.3 0.8-0.7 1.4 1 1.3-0.1 1.4-0.6 1.5-0.3 0.6-0.8 1.5 2.2 1.6 0.9 9 3.4 2.4 1.7 2.8 2.9 1.5 2.4 1.5 3 1 0.8 1.9 0.8 1.8 1.1 1.8 1.6 3 4.6 2.1 2.2-5.3 11.3-4.5-0.9-5.1-3-2.1-0.3-1.3 0.5-0.7 1.2-0.4 1.5-0.3 1.5-0.4 1.8-0.9 1.6-1.9 1.6-1.6 0.5-1.4-0.2-0.8-0.8-1.3-2.2-0.7-0.9-1.1-0.7-1.2 0.1-2.7 0.9-1.4-0.2-4.1-1.6-4.1-0.9-2.2 0.1-16.2 2.9-1.3 0.5-1.5 1.1z" id="ROBV" name="Brasov">
  </path>
  <path d="M474.8 408.9l-17.5 5.1-19.7-0.2-13.4 3.1-1.3 0.5-9.7 5.5-1.8 0.1-1.5-0.3-3.4-1.5-3.6-0.4-16.1 0.5-1.4 0.5-0.8 0.9-0.9 0.9-0.8 0.7-1.2 0.4-1.7 0-1.3 0.5-2.9 2.3-2 1.3-1.1 0.4-2-0.2 2.6-3.9-0.1-1.3-0.4-1.8-2.3-4.1-1-3 0.3-2.2 0.7-2.4 0.8-4.1-0.2-2.5-0.6-2.3-0.8-2-0.6-3.5 0.3-2.5 2.1-7 0.7-1.4 0.6-0.9 0.8-1 0.7-0.5 0.6-0.3 0.7 0 1.5 0.3 0.9-0.1 0.7-0.5 0.6-0.8 1.3-2.5 3.3-5.1 0.2-1.1-0.7-0.8-1.1-0.6-2.5-0.6-0.9-0.5-0.6-0.9-0.4-4.5 0.4-0.8 0.7-0.3 1-0.1 0.9 0.2 0.9 0.5 0.8 0.7 0.9 0.4 0.9 0.1 1.6-0.4 0.6 0 0.7 0.1 1 0 1.1-0.2 1.4-0.9 1.4-1.1 1.4-1.8 0.3-1.6-0.4-1.3-0.7-1.3-0.4-1.4 0.1-2.2 0.7-1.3 1.1-0.9 6.7-1.4 1.1 0 0.8 0.4 0.9 0.7 1.7 1.7 0.9 0.7 0.8 0.2 0.8-0.4 0.3-0.8 0.5-2.5 0.6-2 1.1-1.8 8.1-8.6 2.1-1.9 1.4-1.6 1.9-1.2 1.1-1.1 0.4-1.1 0.1-1.4-0.5-9.2 7.1-0.1 3.5-0.7 5.3 2.3 1.8 0.1 1.9-0.4 1.6-0.6 3-0.6 6.7 0.4 1.9-0.1 1.2-0.6 0.7-0.9 0.7-0.8 1.2-0.7 1.2-0.1 2.6 0.8 1.8 0.2 1.4-0.4 1.8-0.9 0.9 0.1 0.4 0.4-0.3 0.8-0.7 1-0.4 1.1-0.1 1.3 0.7 3.8 0.4 7.9 0.6 3.6 1 3.1 1.6 2.1 1.4 0.6 1.2 0 1.1-0.3 2.2-0.1 0.8-0.3 1-0.9 0.7-0.3 3-0.2 1.1-0.2 0.8-0.3 1.3-0.3 1.3-0.2 2.1 0.3 1.3 0.6 1.5 1 1 0.9 4.6 2.6-2 2.8-5.7 4.8-5.4 2.9-0.6 0.6-0.2 0.9 0.6 1.8 0.1 1.1-0.3 1.3-0.8 0.4-0.6 0-0.8-0.5-0.8-0.2-1.1 0.2-1.6 0.9-1.5 1.5-4.3 2.3-0.6 0.9 0 1.1 0.3 0.8 1.3 1.6 0.4 1-0.1 1.5 0 1.2 0.2 0.9 0.6 0.7 0.6 0.3 0.7 0.5 0.3 0.9-0.5 1.5-1.3 1-1.7 0.7-1.8 0.5-3.4 1.5-1.5 1.1-0.4 1.2 0 1.4 3 6.4 0.6 1.6 0.4 1.7 0.8 4.5 0.4 4 0.3 2.1 0.2 2.8z" id="ROSB" name="Sibiu">
  </path>
  <path d="M509.4 199.4l8.6 1.6 4.4 2.1 0.7 5.4 0.5 1.2 0.8 1.5 2.2 2.2 0.9 1.3 0.7 1.7 0.3 2.2 0.3 8.5-1.5 9.5 0.5 3.2 2 5.8 0.5 1 0.3 1.3-0.1 1.9-0.5 3.1-0.3 2.6 0.2 3.8-0.1 1.3-0.9 1.4-4.1 3.5-1.4 1.6-3.5 5.3-1.2 1.3-1.6 1.1-4.1 1.7-1.2 0.8-5.7 5.9-0.8 1.3-0.4 1.6-0.4 5.2-0.5 1.2-1 0.9-6 2.5-0.7 0.9 0 0.9 2.6 1.9 0.8 1-0.1 1.4-0.5 1-1.1 0.6-2.3 0.5-0.8 0.6-0.7 0.6-1 0.6-2.1 0.9-0.7 0.8-0.1 0.8 0.6 1.3 7.6 9.3 1.7 1.6 1.9 0.6 4.5-0.2 1.6 0.6 5.1 4 7.5 8.1-4.8 1.1-8.8 0.4-1.4 0.4-1.3 0.8-2.2 1.7-0.9 1.1-0.6 1.5-0.4 1.2 0.6 2.8-4.6-2.6-1-0.9-1.5-1-1.3-0.6-2.1-0.3-1.3 0.2-1.3 0.3-0.8 0.3-1.1 0.2-3 0.2-0.7 0.3-1 0.9-0.8 0.3-2.2 0.1-1.1 0.3-1.2 0-1.4-0.6-1.6-2.1-1-3.1-0.6-3.6-0.4-7.9-0.7-3.8 0.1-1.3 0.4-1.1 0.7-1 0.3-0.8-0.4-0.4-0.9-0.1-1.8 0.9-1.4 0.4-1.8-0.2-2.6-0.8-1.2 0.1-1.2 0.7-0.7 0.8-0.7 0.9-1.2 0.6-1.9 0.1-6.7-0.4-3 0.6-1.6 0.6-1.9 0.4-1.8-0.1-5.3-2.3-3.5 0.7-7.1 0.1-1.6-1.1-0.6-0.7-0.8-1.3-0.7-4.4-1-2.1-2-1.6-5.3-2.2-1-0.7-2.9-3.3-0.5-1 0.5-1.7 0.8-1 1.2-1.1 0.7-1.1 0.4-1.2-0.1-1-0.4-0.7-1.2-1.2-1.4-1-3-0.2-2.2-2.2-0.5-1.6 0.4-1.7 1.9-3 1.3-1.2 2.1-1.4 0.6-0.8 0.1-1.5-0.3-1.2-0.5-1.1-0.2-1.3 0.2-1.6 1-2.9 0.9-2 1.6-1.6 1.3-0.6 3.4-0.6 0.9-0.9 0.7-1.5-0.1-2.4-0.7-1.4-0.8-1.1-0.6-1 0-1.2 0.4-1.6 3.6-6.9 1.1-1.4 0.8-0.9 3-0.3 7.9 3.9 6.4 1.6 2.1 0.1 1.5-0.3 4.4-1.8 3.4-0.4 1.8-0.7 1.4-0.9 0.5-1.1 0.3-1.4 0.2-1.5 0.3-1.5 0.5-1.2 1.9-2.3 0.6-1 0.9-2.6 0.9-1.7 2-2.7 2.3-1.8 1.8-0.8 1.1-0.2 1.1 0.2 1.2 0.5 2.8 1.8 1.6 0.7 1.7 0.3 1.2-0.6 0.7-1.1 0.7-4 0.5-1.9 0.8-1.8 2.4-3.6 0.5-1.1 1.3-3.5 0.8-1 4.8-4.3 3.2-2 2.5-0.9 6.4-1.3 7.4-2.9z" id="ROMS" name="Mures">
  </path>
  <path d="M522.4 203.1l3.6 1.4 1.3 0.1 1.4-0.1 1.2-0.5 0.9-0.9 0.5-1.2 0.2-1.1 0-1.4 0.3-1.3 0.9-1.6 1.6-1 1.9-0.9 2.4-0.5 1.6 0.1 1.7 0.7 10.8 7.4 1 1.1 1 1.3 1.1 1.3 1.6 1 1.5 0.2 2-0.3 1.3-0.4 5.1-0.8 2.2 0.6 2.7 1.2 1.4 0.9 1.3 1.6 1.2 2.1 1.6 4.2 1.2 2.4 1.7 2.3 3.2 2.4 1.4 1.3 0.8 1.5 0.5 2.3 0 1.1-0.4 0.7-0.6 0-1.8-0.3-0.9 0-0.8 0.4-0.5 0.7-0.2 1.1 0 1.5 1.1 23.3 0.4 1.7 0.8 1.5 1.4 1.8 3.2 3.2 1.2 0.7 1 0.1 0.3-0.9-0.1-1.3-0.6-2.9 0-1.3 1-0.7 0.9-0.3 7.8 2 0.4 10.4 1.6 6.3 1.2 2.3 1.4 2.1 1.2 2.5 0.1 1.6-0.9 1-1.3 0.5-1.4 1.2-0.8 1.8-0.5 4 0.6 1.9 1.3 1.3 4 1.2 5 0.6 1.4 0.8 1.5 1.6 0.5 1.6 0.1 1.7-0.8 3.3-0.1 1.9 0.8 0.9 1.4 0 2.5-0.8 3.8-2.1 1.4-0.2 1.3 0.2 1.6 1 0.6 1.2 0.2 1.2-1.3 3.6-0.2 1.3-0.5 5.6-0.4 1.4-1.2 2.5-0.4 1.5-0.7 5.2-25 5.5-9-0.7-2.6-1.3-1.7-1.4-0.8-1.4-0.9-1.1-3.8-3.1-0.7-1-0.5-1.2-2.4-4.7-0.3-1.4-0.2-1.3-0.2-1.3-0.7-1.2-1.1-1.1-2.5-2.3-1.5-0.8-1.2 0.3-1.2 0.8-1.1 1.2-3.2 2.1-1.6 1.4-3.4 5.1-1.4 1.6-2.1 1.5-3.4 3.7-0.5 0.9 0.2 1.2-1 0.9-0.5 0.5-2.3 4.8-2.7-3-4.2-1.5-1.5-1.1-1.6-1.5-2-1.1-1.6-0.3-1.6 0-5.3 2.4-5.2 0.9-7.5-8.1-5.1-4-1.6-0.6-4.5 0.2-1.9-0.6-1.7-1.6-7.6-9.3-0.6-1.3 0.1-0.8 0.7-0.8 2.1-0.9 1-0.6 0.7-0.6 0.8-0.6 2.3-0.5 1.1-0.6 0.5-1 0.1-1.4-0.8-1-2.6-1.9 0-0.9 0.7-0.9 6-2.5 1-0.9 0.5-1.2 0.4-5.2 0.4-1.6 0.8-1.3 5.7-5.9 1.2-0.8 4.1-1.7 1.6-1.1 1.2-1.3 3.5-5.3 1.4-1.6 4.1-3.5 0.9-1.4 0.1-1.3-0.2-3.8 0.3-2.6 0.5-3.1 0.1-1.9-0.3-1.3-0.5-1-2-5.8-0.5-3.2 1.5-9.5-0.3-8.5-0.3-2.2-0.7-1.7-0.9-1.3-2.2-2.2-0.8-1.5-0.5-1.2-0.7-5.4z" id="ROHR" name="Harghita">
  </path>
  <path d="M645.3 178.1l6.6 6.5 4.9 7.2 2.9 7.2 0.7 2.2 0.8 1.9 1.3 0.7 1.6 0.1 1.8-0.2 2.3 0 2.7 0.8 3.7 2 5.7 4.5 2.5 1.3 3.9 0.9 1.4-0.1 0.8-0.5 0.6-0.8 0.8-2.4 0.8-0.8 1.4-0.3 4.6 1 1.7 0.2 1.1-0.5 1-0.9 3.4-3.9 1.2-0.7 1.6-0.4 2.2 0.2 1.2 0.6 0.7 1.1 0.4 1.3 0.4 1.3 0.8 1.4 1.2 1.4 2.2 1.9 1.3 1.5 0.6 1.3-0.4 1-0.8 0.6-2.9 0.7-1.7 0.7-1.6 0.9-1.3 1.3-0.6 1.4 0.1 1.5 1 1.6 2.1 2.8 1.7 3 0.5 1.2 0.5 1.9 0.6 4.4 2.1 5.9 0.4 2.2 0 1.6-1.1 2.3-3.8 1.9-2.7-0.8-1-0.6-7.8-1.7-2.3 0-6.8 1-2-1.3-1.3-1.5-0.6-1.4-0.1-1 0.3-0.9-0.2-1-0.5-1.1-1.9-1.5-1.1-0.1-0.5 0.5 0.1 1 0.1 1.1-0.3 1.1-0.5 1-2.6 2.2-0.5 0.9-0.1 1.1 0.2 1.2 0 1.1-0.5 1.1-1.1 0.9-1.6 0.7-1.5 0-1.2-0.7-2.9-2.1-2.6-0.9-1.8 0.1-1.2 0.8-0.8 1.9-0.8 1-5.9 2.5-1.4 0.9-1.8 2.4-0.9 0.8-1.2 0.1-3.9-0.8-3.5 0.9-3.6-0.1-1.1 0.4-0.8 0.8-0.8 1.3-0.9 1.1-0.9 0.8-1.7 0.2-7.6 0-1.1-0.2-0.2-0.6 0.1-0.7 0.2-1 0-1-0.2-1-0.5-1-0.7-1-1-2.2-0.7-0.7-1.4-0.6-1.1 0.3-1.1 0.5-5.9 4.4-2.5 1-1.9 0.4-1.3-0.3-2.7-1.6-2.2-0.6-1.3 0-3.6 1.1-7.8-2-0.9 0.3-1 0.7 0 1.3 0.6 2.9 0.1 1.3-0.3 0.9-1-0.1-1.2-0.7-3.2-3.2-1.4-1.8-0.8-1.5-0.4-1.7-1.1-23.3 0-1.5 0.2-1.1 0.5-0.7 0.8-0.4 0.9 0 1.8 0.3 0.6 0 0.4-0.7 0-1.1-0.5-2.3-0.8-1.5-1.4-1.3-3.2-2.4-1.7-2.3-1.2-2.4-1.6-4.2-1.2-2.1-1.3-1.6-1.4-0.9-2.7-1.2-2.2-0.6 0.1-3.1 1.1-3.6 1.2-2.5 4.3-5.1 1.4-1.4 3.8-2.5 1.6-1.4 0.8-1.4 0.2-1.4-0.3-1.1-0.7-1.1-1.9-1.8-1.7-2.4-0.3-1 0.4-0.8 0.8-0.4 1-0.1 1.2 0.5 1.3 0.8 4.4 4.2 1.2 0.8 1.3 0.2 1.7-0.3 7-3.3 1.4-0.1 1.3 0.5 1.2 0.8 1.6 0.5 1.8 0.1 5-1.3 10.8 0 3.5-0.8 9-4.7 2.2-0.6 1.9 0 1.9 0.5 1.7 0.7 1.4 1.1 3.4 3.9z" id="RONT" name="Neamt">
  </path>
  <path d="M716.7 250.1l1.4 1.7 0.6 1 1.3 1.4 4.3 3.7 1.9 2 1.1 2.5 0.1 3.5-0.4 3.1 0.5 3.2 10 17.6 3.6 8.6 2.2 8.6 1.1 6.4 0.6 17.6-2.9-0.4-3.4-1-0.9 0.2-0.7 0.8-0.5 0.9-0.8 0.7-1 0.3-1.8-0.2-4.1-2.6-1.9-0.3-2.5 0.1-7.1 1.5-2.3 1.3-1.1 1.2-1.6 2.3-1.1 1-2.6 1.7-0.9 1.1-1.1 2.1-0.9 0.6-1.2 0.3-5-1.8-1.3-0.3-1.5 0.2-1.6 0.8-0.8 0.9-0.5 1.1-0.2 0.9-0.4 0.6-0.9 0.2-3.7-1.6-1.5-0.2-1.6 0.1-1.9 0.4-1.6-0.2-2.4-0.7-4.2-0.1-2.9-0.6-9.2 0.6-1.6 0.5-1.1 1-0.6 1.2-0.3 1.3-0.1 2.6-0.2 1.3-2.9 1.5-11.1-1.7-1.6-0.8-0.6-1.1-0.6-1.3-0.9-2.9-0.5-1.3-0.9-0.9-1-0.9-1.8-0.9-0.6-1.3 0.2-0.9 1.4-1.5 0.2-1-0.5-1.1-0.9-1.2-3.6-2.2-0.8-0.7-1.2-1.7-0.8-0.4-0.9 0.2-3 2.7-4 1.3 0.7-5.2 0.4-1.5 1.2-2.5 0.4-1.4 0.5-5.6 0.2-1.3 1.3-3.6-0.2-1.2-0.6-1.2-1.6-1-1.3-0.2-1.4 0.2-3.8 2.1-2.5 0.8-1.4 0-0.8-0.9 0.1-1.9 0.8-3.3-0.1-1.7-0.5-1.6-1.5-1.6-1.4-0.8-5-0.6-4-1.2-1.3-1.3-0.6-1.9 0.5-4 0.8-1.8 1.4-1.2 1.3-0.5 0.9-1-0.1-1.6-1.2-2.5-1.4-2.1-1.2-2.3-1.6-6.3-0.4-10.4 3.6-1.1 1.3 0 2.2 0.6 2.7 1.6 1.3 0.3 1.9-0.4 2.5-1 5.9-4.4 1.1-0.5 1.1-0.3 1.4 0.6 0.7 0.7 1 2.2 0.7 1 0.5 1 0.2 1 0 1-0.2 1-0.1 0.7 0.2 0.6 1.1 0.2 7.6 0 1.7-0.2 0.9-0.8 0.9-1.1 0.8-1.3 0.8-0.8 1.1-0.4 3.6 0.1 3.5-0.9 3.9 0.8 1.2-0.1 0.9-0.8 1.8-2.4 1.4-0.9 5.9-2.5 0.8-1 0.8-1.9 1.2-0.8 1.8-0.1 2.6 0.9 2.9 2.1 1.2 0.7 1.5 0 1.6-0.7 1.1-0.9 0.5-1.1 0-1.1-0.2-1.2 0.1-1.1 0.5-0.9 2.6-2.2 0.5-1 0.3-1.1-0.1-1.1-0.1-1 0.5-0.5 1.1 0.1 1.9 1.5 0.5 1.1 0.2 1-0.3 0.9 0.1 1 0.6 1.4 1.3 1.5 2 1.3 6.8-1 2.3 0 7.8 1.7 1 0.6 2.7 0.8 3.8-1.9z" id="ROBC" name="Bacau">
  </path>
  <path d="M287 307.2l-4.7-4.8-1.8-7.5-0.1-8.5 0.5-3.3 1-3.5 1.3-2.6 1.2-1.4 1.1-0.7 1.3-0.2 1.1 0 1.3 0.2 0.9 0.3 1.4 0.9 3 2.6 13.5 0.3 2.2 0.7 1.3 0.9 0.9 1.9 0.5 0.9 0.9 0.8 1.2 0.9 0.8 0.7 0.4 0.8 0.2 1.7 0.2 0.9 0.7 0.9 0.6 0.2 0.8-0.4 1-1.6 0.7-0.7 4-2.4 0.9-0.4 1.8 0 4.4 1.4 1.6 0.2 1.2-0.1 0.9-0.6 1-0.9 3.5-2.7 9.6-1.8 1.6 0.4 1.4 0.7 5.4 4 4.7 1.9 2.1 0.4 1.8 0.1 3.1-0.3 1.1 0.4 0.6 0.8 0 1.1-0.7 1.4-0.8 1.1-0.5 1.1 0.1 1.2 0.7 1.4 2 1.4 1.6 0.5 1.4 0 0.6-0.4 0.2-0.8-0.2-0.9-0.2-0.9 0-0.9 0.6-0.6 1-0.4 4.5 0 1.2-0.2 1.8-0.9 1-0.3 4.3 0.2 1.5-0.2 3.5-0.9 1.9 0.3 6 1.9 1.3 0 1.6-0.8 0.7-1 3 0.2 1.4 1 1.2 1.2 0.4 0.7 0.1 1-0.4 1.2-0.7 1.1-1.2 1.1-0.8 1-0.5 1.7 0.5 1 2.9 3.3 1 0.7 5.3 2.2 2 1.6 1 2.1 0.7 4.4 0.8 1.3 0.6 0.7 1.6 1.1 0.5 9.2-0.1 1.4-0.4 1.1-1.1 1.1-1.9 1.2-1.4 1.6-2.1 1.9-8.1 8.6-1.1 1.8-0.6 2-0.5 2.5-0.3 0.8-0.8 0.4-0.8-0.2-0.9-0.7-1.7-1.7-0.9-0.7-0.8-0.4-1.1 0-6.7 1.4-1.1 0.9-0.7 1.3-0.1 2.2 0.4 1.4 0.7 1.3 0.4 1.3-0.3 1.6-1.4 1.8-1.4 1.1-1.4 0.9-1.1 0.2-1 0-0.7-0.1-0.6 0-1.6 0.4-0.9-0.1-0.9-0.4-0.8-0.7-0.9-0.5-0.9-0.2-1 0.1-0.7 0.3-0.4 0.8 0.4 4.5 0.6 0.9 0.9 0.5 2.5 0.6 1.1 0.6 0.7 0.8-0.2 1.1-3.3 5.1-1.3 2.5-0.6 0.8-0.7 0.5-0.9 0.1-1.5-0.3-0.7 0-0.6 0.3-0.7 0.5-0.8 1-0.6 0.9-0.7 1.4-2.1 7-0.3 2.5 0.6 3.5 0.8 2 0.6 2.3 0.2 2.5-0.8 4.1-0.7 2.4-0.3 2.2 1 3 2.3 4.1 0.4 1.8 0.1 1.3-2.6 3.9-4 0.7 0.1-4.6-0.2-1-0.3-1.4-0.6-0.8-4.8-4.6-2.1-2.4-1.6-1.2-3.8-1.8-2.2-1.8-1.2-1.7-1-2.4-0.4-1.4-0.1-1.2 0.3-1.1 0.4-1 0.2-0.9-0.3-1.3-2.1-2.4-0.5-1.1-0.1-1.1 0.2-2.6-0.4-2-0.7-3-2.2-5.7-2.4-10.6-0.9-1.6-2.5-3.1-1.6-2.6-3.7-9.7-1.1-0.9-1.9-0.3-2.3-1.1-9.2-12.2-0.7-1.2-0.3-1 0.2-0.6 0.4-0.4 0.6-0.1 0.7 0.1 0.7 0.3 0.4-0.5-0.1-1.4-1.5-4.1-1.2-2.2-1.2-1.7-1.1-0.8-1.1-0.5-4.4-0.7-1.1-0.4-0.7-0.8-1.6-6.1-1.5-4-1-2-0.9-1.2-1-0.3-8.8 0.9-0.9-0.2-4.6-3z" id="ROAB" name="Alba">
  </path>
  <path d="M796.4 521l-1.9 1.8-2 0.8-1.8-0.5-2.9-1.9-1.8-0.4-1.9 0.1-1.5 0.3-2.9-2.8-0.8-1-1.7-1.1-2-0.4-4.5 0.5-2.1 0.8-1.7 0.9-2.2 0.7-3.7 0.8-26.3-0.8-2.7-1-1.2-0.6-1.2-0.3-1.7 0.6-2.2 1.1-1.9 0.1-1.5-0.2-8-3.3-0.3-0.9 0.6-6.3-0.6-1.7-1-1.2-0.9-0.8-0.3-1.3 0.4-1.2 1.2-1.2 1-0.6 3.5-0.9 0.8-1.3 0.7-2.3 1.1-5 0.4-2.9 0.1-2.2-0.2-1.3-0.5-0.8-0.8-0.4-2.3 0.1-1.3-0.2-0.7-0.5-0.4-0.9 0-1.2 0.1-2.7-0.1-1.3-0.6-1.1-0.8-0.6-1.2-0.4-0.9-0.5-0.5-0.9-0.1-1.5 0.1-2.7-0.1-1.1-0.4-1-0.6-0.8-0.9-0.5-0.9 0-0.8 0.3-0.6 0.6 0 1-0.1 0.8-0.3 0.9-0.8 0.9-1.2 0.2-0.9-0.2-0.6-0.6-1.4-3.7-0.1-1 0.1-1 0.8-1.1 1.4-1.2 7.7-2.7 4.5 0.7 1.2 0 3.8-1.2 1.3 0 1 0.3 0.7 0.5 0.7 0.2 0.6-0.6 0.4-2-0.5-3.1 0-1.4 0.6-1.1 1.9-0.8 1.4 0 1.5 0.2 1.2-0.2 0.9-1.1 0.7-3.1 0.6-1.9 1.8-3.1 0.3-2.6 0.9-2.8 2.4-3.7 2.5-3.2 1.7-1.6 1.9-1.2 5.7-2.1 5.5 2.4 3.4-0.2 1.7-0.3 1.2 0.3 0.8 0.7 1.9 2.4 3.3 2.9 5.3 2.8 3.4 0.7 6.3-0.3 2.3 0.4 2.4 0.8 5.8 0.8-0.4 1.2-0.2 1.2-0.3 4 0 0.5-0.2 0.5-0.8 1.5-0.1 0.3-0.5 2.1-0.5 0.8-1.2 2 5.2 4.6 3.3 1.4 3.4-1.4 0.6 0.6 0.5 0.6 0.5 0.7 0.3 0.9-1.2 1.8-1.4 2.9-0.5 2.6 1.5 1.2 1.8 0.6 1.9 1.4 1.7 1.8 0.8 1.8-0.4 1.8-1.1 1.8-1.4 1.4-1.3 0.6-0.3 0.6 0.6 4.4 0.1 0.4 0.2 0.3 0.2 0.4 0.1 0.8-0.1 0.9-0.9 1.4-0.3 1 1 4.9 0.1 3.1-1.4 1.3-0.3 0.7 0.1 6 0.1 0.7-0.1 0.5-0.8 1.4-2.6 3.5-0.9 2-0.4 3.3-0.6 2.8-1.5 2.6z" id="ROBR" name="Braila">
  </path>
  <path d="M793.4 578l-14.6-4.8-8.8-3.7-3.9-2.7-2.1-2.3-1.4-1.3-1.3-0.6-5.3-1.2-2.8-1.4-13.4-2.5-2.9-0.1-2.4 0.3-2.8 1.1-1.7 0.5-17.1-0.4-5.6 1.1-2.9 0-2.3-0.5-7.1-3-2.2-0.5-1.9-0.1-5.5 1-1.8-0.4-2.9-1.7-1.1-0.3-1.5 0.1-1.4 0.2-2.5 0.1-1.8-0.6-1.6-1-3.1-3.1-0.8-0.3-0.9 0.2-0.7 0.6-1.5 1.9-0.8 0.7-0.9 0.6-2.3 0.8-1.6 0.2-1.4-0.2-1.2-0.4-3.1-2.3-1.3-0.7-1.4-0.3-1.5 0.2-7.7 4.1-2.2-1.8-3.1-1.6-0.8-1.1-0.3-1.1 0.2-1.2 0.3-1.1 0.5-1.1 0.6-1 0.8-0.9 3.8-2.6 0.6-0.8 0.4-1.1-0.2-0.9-0.9-1-5.9-3.3-0.9-1.2-0.3-1.2 0-1.1-0.3-1-0.7-1.4-0.2-1.1 0-2.2-0.6-0.7-0.9-0.4-3.9-0.5-1.8-0.6 3.5-3.2 3.2-1.6 1.4-0.1 1.1 0.3 2.2 1.3 2.2 0.1 1.1-0.4 0.9-0.9 0.7-1 1.3-1.1 1.3-0.3 5.2 0.5 1.4-0.4 1.3-0.7 1-0.8 0.7-0.7 1.2-2.2 2.5-3.1 2.1 1.1 3.3 2.9 1.7 0.5 2.3 0.1 6.3-0.5 5.8 1 1 0.5 1.1 0.3 1.4 0 3.4-0.7 1.9 0.1 2.2 0.8 2.9 1.8 1.3 0.6 1.4 0 1.3-0.8 1-1.1 1.2-0.7 1.5-0.2 2.2 0.7 1.5 0.7 1.3 0.9 0.9 0.9 0.6 0.9 0.1 1 0 0.9-0.2 0.8 0 0.7 0.1 0.7 0.4 0.3 0.7 0.1 0.6-0.1 2.7-1.1 2.2-0.6 1-0.5 0.4-0.5-0.4-0.8-0.7-0.6-1.1-0.7-0.6-0.7 0-0.8 0.4-0.6 2.1-1.1 8 3.3 1.5 0.2 1.9-0.1 2.2-1.1 1.7-0.6 1.2 0.3 1.2 0.6 2.7 1 26.3 0.8 3.7-0.8 2.2-0.7 1.7-0.9 2.1-0.8 4.5-0.5 2 0.4 1.7 1.1 0.8 1 2.9 2.8-1.6 0.9-1 1.5-0.7 1.8 0.8 2.5 1.3 2.4 1.7 1.8 1.8 0.8 2.4 0.3 1.7 1 5.1 5.7 0.4 0.8-0.1 1.3-0.5 3.1-0.7 1.4 0 4.8-0.6 1.3-1.1 0.4 0.4 1.1 1.2 1.3 2.2 1.2 2.3 0.8 1.8 0.4 0.7 1 0.9 2.5 0.6 2.8 0.2 2-1.1 1.7-4 3.3-0.9 1-2.4 5.9z" id="ROIL" name="Ialomita">
  </path>
  <path d="M617.7 571.5l-4.6-1.4-0.7 2 3 7.4-2.6 2.3-4.6-6.1-5.3-1.2-6.3-6.8 0-4.3 6.3-0.6 0-4.2-5-2.2 4.6-8.1 6.4-2.4 0.9 9.1 7.5 1.8-2.3 6.8 4.2 3.7-1.5 4.2z" id="ROB" name="Bucharest">
  </path>
 </g>
 <g id="points">
  <circle class="43.88128901070248|20.715662413337384" cx="90.9" cy="641.3" id="0">
  </circle>
  <circle class="45.731201955495656|25.444026871822565" cx="545.5" cy="390.7" id="1">
  </circle>
  <circle class="48.043593136487125|29.22671843861071" cx="909.1" cy="65.3" id="2">
  </circle>
 </g>
 <g id="label_points">
  <circle class="Satu Mare" cx="300.2" cy="119.9" id="ROSM">
  </circle>
  <circle class="Arad" cx="190.6" cy="311.9" id="ROAR">
  </circle>
  <circle class="Bihor" cx="233.7" cy="218.7" id="ROBH">
  </circle>
  <circle class="Timis" cx="135.8" cy="402.8" id="ROTM">
  </circle>
  <circle class="Mehedinti" cx="303.9" cy="573.7" id="ROMH">
  </circle>
  <circle class="Dolj" cx="372.9" cy="600" id="RODJ">
  </circle>
  <circle class="Calarasi" cx="711.1" cy="583.4" id="ROCL">
  </circle>
  <circle class="Teleorman" cx="524.7" cy="614.7" id="ROTR">
  </circle>
  <circle class="Giurgiu" cx="591.7" cy="607.7" id="ROGR">
  </circle>
  <circle class="Constanta" cx="819.6" cy="604.9" id="ROCT">
  </circle>
  <circle class="Olt" cx="455.1" cy="582.6" id="ROOT">
  </circle>
  <circle class="Caras-Severin" cx="218.8" cy="472.2" id="ROCS">
  </circle>
  <circle class="Botosani" cx="672.1" cy="90.4" id="ROBT">
  </circle>
  <circle class="Iasi" cx="728.1" cy="179.5" id="ROIS">
  </circle>
  <circle class="Vaslui" cx="774.2" cy="287.4" id="ROVS">
  </circle>
  <circle class="Galati" cx="773.1" cy="386.3" id="ROGL">
  </circle>
  <circle class="Suceava" cx="566.8" cy="130" id="ROSV">
  </circle>
  <circle class="Maramures" cx="396" cy="123.9" id="ROMM">
  </circle>
  <circle class="Tulcea" cx="847.6" cy="494.6" id="ROTL">
  </circle>
  <circle class="Cluj" cx="382.4" cy="243.6" id="ROCJ">
  </circle>
  <circle class="Bistrita-Nasaud" cx="453.1" cy="182.4" id="ROBN">
  </circle>
  <circle class="Salaj" cx="334.1" cy="189.1" id="ROSJ">
  </circle>
  <circle class="Dâmbovita" cx="549" cy="515.9" id="RODB">
  </circle>
  <circle class="Ilfov" cx="621.8" cy="540.9" id="ROIF">
  </circle>
  <circle class="Arges" cx="488.9" cy="486.6" id="ROAG">
  </circle>
  <circle class="Gorj" cx="343.2" cy="492.4" id="ROGJ">
  </circle>
  <circle class="Hunedoara" cx="309" cy="394.2" id="ROHD">
  </circle>
  <circle class="Vâlcea" cx="422" cy="472.7" id="ROVL">
  </circle>
  <circle class="Prahova" cx="599.1" cy="474.7" id="ROPH">
  </circle>
  <circle class="Covasna" cx="605.3" cy="369.9" id="ROCV">
  </circle>
  <circle class="Vrancea" cx="694.3" cy="381" id="ROVN">
  </circle>
  <circle class="Buzau" cx="671.2" cy="459.2" id="ROBZ">
  </circle>
  <circle class="Brasov" cx="527.6" cy="376.7" id="ROBV">
  </circle>
  <circle class="Sibiu" cx="430.7" cy="376.3" id="ROSB">
  </circle>
  <circle class="Mures" cx="474.6" cy="273" id="ROMS">
  </circle>
  <circle class="Harghita" cx="556.7" cy="274.9" id="ROHR">
  </circle>
  <circle class="Neamt" cx="634.7" cy="218.8" id="RONT">
  </circle>
  <circle class="Bacau" cx="674.8" cy="298.1" id="ROBC">
  </circle>
  <circle class="Alba" cx="358" cy="335.9" id="ROAB">
  </circle>
  <circle class="Braila" cx="758.2" cy="477.1" id="ROBR">
  </circle>
  <circle class="Ialomita" cx="724.2" cy="538.9" id="ROIL">
  </circle>
  <circle class="Bucharest" cx="608.8" cy="564.1" id="ROB">
  </circle>
 </g>
</svg>